<svg width="346" height="140" viewBox="0 0 346 140" fill="none" xmlns="http://www.w3.org/2000/svg">
<g clip-path="url(#clip0_3_2262)">
<mask id="mask0_3_2262" style="mask-type:luminance" maskUnits="userSpaceOnUse" x="0" y="0" width="289" height="140">
<path d="M288.5 0H0.5V139.095H288.5V0Z" fill="white"/>
</mask>
<g mask="url(#mask0_3_2262)">
<path d="M271.684 59.2634C272.76 63.8794 273.755 68.1244 274.739 72.3723C276.51 80.0141 278.269 87.6587 280.045 95.2996C280.503 97.2703 280.525 97.2671 278.609 97.2685C275.976 97.2703 273.335 97.1433 270.713 97.3166C269.163 97.4189 268.8 96.7271 268.556 95.4626C267.887 92.0019 267.134 88.557 266.404 85.1079C266.359 84.8907 266.231 84.6907 266.034 84.233C262.622 89.0755 259.306 93.7801 255.735 98.8478C256.758 98.8478 257.406 98.8464 258.055 98.8478C265.096 98.8646 272.137 98.9146 279.177 98.8706C280.518 98.8627 281.148 99.1341 281.463 100.596C282.769 106.649 284.242 112.666 285.706 118.919C281.876 118.919 278.171 118.916 274.466 118.921C273.488 118.922 273.643 118.064 273.52 117.554C272.853 114.791 272.22 112.017 271.683 109.226C271.482 108.181 271.079 107.837 269.996 107.845C263.528 107.897 257.059 107.888 250.591 107.852C249.689 107.847 249.149 108.128 248.636 108.878C246.574 111.891 244.438 114.853 242.325 117.83C242.002 118.285 241.774 118.9 241.094 118.903C237.401 118.917 233.708 118.91 229.688 118.91C243.731 98.9655 257.577 79.299 271.684 59.2634Z" fill="white"/>
<path d="M170.942 59.3675C172.202 59.3675 173.472 59.4661 174.719 59.3413C176.1 59.2026 176.355 59.6646 176.042 60.9384C174.983 65.2446 174.009 69.5719 172.994 73.8889C169.584 88.3906 166.149 102.886 162.799 117.401C162.518 118.618 162.085 118.984 160.892 118.95C158.261 118.872 155.625 118.894 152.992 118.941C151.92 118.96 151.631 118.735 151.904 117.572C156.359 98.6417 160.769 79.6996 165.161 60.7543C165.408 59.6931 165.844 59.2386 166.994 59.3409C168.3 59.4567 169.625 59.3675 170.942 59.3675Z" fill="white"/>
<path d="M113.947 118.888C112.989 114.904 112.091 111.213 111.216 107.517C107.575 92.1369 103.943 76.7556 100.309 61.3744C100.218 60.9867 100.211 60.5672 100.057 60.2085C99.6469 59.249 100.158 59.1659 100.92 59.1701C104.126 59.1874 107.332 59.2075 110.537 59.1589C111.476 59.1444 111.773 59.4975 111.977 60.3869C113.62 67.5341 115.336 74.6649 117.015 81.8036C118.8 89.3852 120.552 96.9743 122.363 104.55C122.619 105.619 122.571 106.463 121.896 107.409C119.255 111.114 116.708 114.884 113.947 118.888Z" fill="white"/>
<path d="M202.594 118.883C201.633 114.88 200.736 111.188 199.862 107.491C196.238 92.1663 192.622 76.8402 189.004 61.5145C188.9 61.0716 188.864 60.6031 188.696 60.186C188.39 59.419 188.618 59.164 189.421 59.1691C192.741 59.1906 196.062 59.2275 199.381 59.1533C200.65 59.1243 200.547 60.0496 200.71 60.74C203.183 71.1966 205.627 81.6602 208.078 92.1215C209.051 96.2731 209.996 100.431 211.019 104.571C211.285 105.645 211.201 106.49 210.533 107.429C207.9 111.127 205.353 114.886 202.594 118.883Z" fill="white"/>
<path d="M212.763 104.871C211.719 100.828 210.788 97.1507 209.808 93.4863C209.584 92.6511 209.71 92.0219 210.219 91.2955C217.454 80.9819 224.659 70.6467 231.851 60.3032C232.426 59.4754 233.076 59.1298 234.114 59.1508C237.465 59.219 240.819 59.176 244.554 59.176C233.903 74.4854 223.442 89.5224 212.763 104.871Z" fill="white"/>
<path d="M133.463 74.5042C136.829 69.6234 140.202 64.7477 143.551 59.8558C143.973 59.2396 144.518 59.1672 145.178 59.1705C148.613 59.1869 152.047 59.178 155.946 59.178C149.841 67.8848 143.907 76.3488 137.972 84.8127C137.026 84.8828 136.89 84.1069 136.692 83.4978C135.713 80.4644 134.578 77.488 133.463 74.5042Z" fill="white"/>
<path d="M133.464 74.5042C134.95 75.6187 134.897 77.4787 135.586 78.9739C136.266 80.4467 136.678 82.0428 137.189 83.5903C137.348 84.0719 137.417 84.5927 137.973 84.8127C133.427 91.4129 128.882 98.0131 124.113 104.937C123.044 100.705 122.088 96.8845 121.102 93.0716C120.981 92.604 120.923 92.2326 121.231 91.7996C125.318 86.0412 129.389 80.2715 133.464 74.5042Z" fill="white"/>
<path d="M141.199 34.0724C140.843 34.1322 140.438 33.986 140.086 33.6408C138.904 32.4796 137.756 31.2922 136.743 29.9731C135.936 28.9221 136 28.1019 137.017 27.1962C139.244 25.2114 141.733 23.5967 144.18 21.9183C146.249 20.4983 148.276 19.0106 150.4 17.678C152.438 16.3986 153.381 16.5817 155.025 18.3174C156.164 19.5193 157.239 20.7814 158.383 21.9781C159.298 22.9352 159.137 23.8008 158.274 24.6486C157.95 24.9681 157.62 25.3119 157.228 25.5277C152.735 28.0019 148.585 31.0675 143.922 33.2452C143.101 33.6282 142.265 34.0168 141.199 34.0724Z" fill="#EC7923"/>
<path d="M137.411 7.20567C139.511 7.43829 141.215 8.65977 143.039 9.5538C146.392 11.1957 146.457 11.7525 143.58 14.2557C140.608 16.8425 137.701 19.4947 134.81 22.1717C131.275 25.4442 130.11 24.9314 127.131 23.0475C126.603 22.714 126.022 22.4627 125.463 22.1792C123.627 21.2464 123.407 20.513 124.541 18.8394C124.954 18.2298 125.409 17.6146 125.964 17.1401C128.922 14.6083 131.583 11.7894 134.166 8.88585C135.011 7.93529 135.995 7.14261 137.411 7.20567Z" fill="#F08721"/>
<path d="M119.82 2.20048C121.518 2.49709 123.887 2.84182 126.222 3.34255C127.894 3.70082 128.203 4.43885 127.298 5.91817C126.38 7.42038 125.294 8.82169 124.262 10.2534C122.697 12.4254 121.122 14.5909 119.538 16.7489C118.599 18.0288 117.36 18.8005 115.729 18.5706C113.7 18.2838 111.707 17.8107 109.735 17.2385C108.792 16.9647 108.54 16.4131 108.893 15.584C109.314 14.5909 109.742 13.5871 110.3 12.6683C112.072 9.74936 113.902 6.86546 115.718 3.97268C116.509 2.7129 117.631 2.05007 119.82 2.20048Z" fill="#F3981F"/>
<path d="M81.2053 129.487C81.2053 130.971 81.1595 132.457 81.217 133.94C81.2894 135.823 80.1296 136.659 78.5522 136.885C76.0092 137.247 73.4402 137.463 70.8744 137.624C69.1409 137.734 68.5542 137.093 68.6981 135.375C68.9695 132.134 69.3072 128.898 69.6225 125.66C69.7608 124.236 70.5166 123.329 71.9464 123.1C74.2543 122.731 76.5492 122.28 78.8992 122.189C80.2641 122.136 80.8377 122.738 81.0839 124.02C81.437 125.855 80.9493 127.667 81.2053 129.487Z" fill="#E75B25"/>
<path d="M56.338 122.562C58.2531 122.707 59.909 122.781 61.5523 122.968C63.3361 123.171 63.8471 123.861 63.5281 125.605C62.8816 129.136 61.6139 132.487 60.4532 135.867C60.0328 137.091 59.1462 137.768 57.8481 137.626C55.2445 137.341 52.652 136.953 50.0512 136.634C49.1011 136.517 48.9951 136.013 49.1777 135.193C50.0764 131.162 51.9934 127.53 53.6479 123.8C54.1944 122.568 55.4206 122.513 56.338 122.562Z" fill="#E75125"/>
<path d="M86.4657 7.77398C86.4386 10.4052 86.0337 13.0004 85.6833 15.598C85.5441 16.6298 85.2302 17.6509 84.0975 18.0484C81.463 18.9728 78.7903 19.7594 75.9946 20.0243C75.2538 20.0948 74.6466 19.9491 74.5746 19.0055C74.3009 15.4191 74.1033 11.8392 74.7012 8.25977C74.8628 7.29146 75.3832 6.74494 76.259 6.42218C78.9944 5.4137 81.8064 4.70837 84.6828 4.24126C86.0094 4.02593 86.6372 4.48369 86.4783 5.89061C86.4083 6.51093 86.4667 7.14525 86.4657 7.77398Z" fill="#F5A51C"/>
<path d="M68.4984 20.967C68.4779 22.2814 67.9939 23.0026 67.0887 23.4342C65.0297 24.417 62.9768 25.4133 60.8968 26.3499C59.5337 26.9632 58.5481 26.6526 57.9012 25.1569C56.7918 22.593 55.7231 20.0337 55.1009 17.2913C54.8561 16.2142 55.0822 15.55 55.9828 14.9904C58.5089 13.4209 61.1228 12.0443 63.9208 11.0041C65.2123 10.5239 66.0214 11.0144 66.3259 12.1289C67.1513 15.1464 67.8295 18.2041 68.4984 20.967Z" fill="#F5A51C"/>
<path d="M39.6167 134.094C37.305 133.384 34.8905 132.529 32.6554 131.271C31.8795 130.834 31.9767 129.989 32.4237 129.302C34.5976 125.957 37.0009 122.775 39.4378 119.62C39.8988 119.023 40.5784 118.626 41.3823 118.706C43.6889 118.935 45.7815 119.846 47.8013 120.897C48.6126 121.32 48.5346 122.153 48.1133 122.85C46.1417 126.115 44.1639 129.378 42.1325 132.606C41.6135 133.43 40.8666 134.088 39.6167 134.094Z" fill="#E75425"/>
<path d="M46.528 21.0155C47.0871 20.9356 47.3622 21.3093 47.6238 21.6905C49.1695 23.9419 50.7119 26.1952 52.2542 28.449C53.1235 29.7186 52.8942 30.8098 51.6699 31.6865C49.8645 32.9795 48.0353 34.2388 46.2239 35.5229C45.2252 36.2305 44.3363 36.1222 43.4867 35.2575C41.6893 33.4274 39.8194 31.6608 38.2901 29.5911C37.0224 27.8754 37.1219 27.1808 38.7965 25.8935C40.4211 24.6435 42.0779 23.4346 43.7417 22.2375C44.5774 21.6358 45.5083 21.2103 46.528 21.0155Z" fill="#F4A11D"/>
<path d="M25.0246 126.676C24.4757 126.731 24.0035 126.488 23.5952 126.192C22.2136 125.188 20.8487 124.161 19.5043 123.109C18.3609 122.214 18.3441 121.122 19.3483 120.187C22.3943 117.352 25.4534 114.525 28.7521 111.978C29.6134 111.313 30.5411 111.361 31.4216 112.058C32.4483 112.87 33.4965 113.656 34.5316 114.459C36.073 115.654 36.1501 116.128 34.7717 117.584C32.8112 119.655 30.7714 121.65 28.7796 123.692C28.064 124.426 27.4129 125.224 26.6884 125.949C26.2451 126.393 25.721 126.76 25.0246 126.676Z" fill="#E64725"/>
<path d="M84.2887 124.275C84.0042 122.764 84.7866 122.096 86.1066 121.665C88.0068 121.045 89.942 120.592 91.9016 120.235C93.1866 120.002 94.0825 120.359 94.4398 121.813C95.09 124.459 95.8775 127.071 96.5978 129.699C96.9379 130.939 96.5773 131.856 95.2773 132.225C92.7587 132.939 90.2228 133.593 87.6093 133.85C86.3229 133.977 85.442 133.623 85.2967 132.064C85.0538 129.459 84.6339 126.87 84.2887 124.275Z" fill="#EA6624"/>
<path d="M32.4376 47.0649C32.2209 46.9967 31.6566 46.879 31.1447 46.6463C28.5947 45.4884 26.2218 44.0095 23.8317 42.5639C22.7657 41.9197 22.5896 41.0672 23.4239 40.1629C25.1232 38.3202 26.8272 36.4747 28.64 34.7459C29.7611 33.6767 30.9985 33.4207 32.4184 34.5918C34.3513 36.1851 36.4533 37.5752 38.4894 39.0433C39.5983 39.843 39.773 40.6931 38.7673 41.7305C37.2969 43.2472 35.8704 44.8055 34.4163 46.3376C33.9762 46.8014 33.4872 47.1961 32.4376 47.0649Z" fill="#F3981F"/>
<path d="M25.9719 106.975C26.0392 108.089 25.6388 108.588 25.1162 108.948C21.7367 111.274 18.3455 113.582 14.945 115.877C13.9117 116.575 13.0303 116.37 12.3296 115.324C11.4104 113.952 10.4346 112.617 9.54896 111.224C8.9576 110.294 8.96181 109.462 10.0773 108.789C13.5885 106.67 17.0619 104.49 20.5549 102.342C21.6442 101.672 22.6634 101.784 23.4108 102.841C24.4183 104.265 25.6519 105.574 25.9719 106.975Z" fill="#E64725"/>
<path d="M4.18331 96.9256C4.11137 95.6378 4.80923 94.96 5.86909 94.5723C9.27989 93.3233 12.6851 92.0569 16.1211 90.8808C18.1511 90.1862 18.9135 90.6505 19.5384 92.6871C19.6048 92.9043 19.6982 93.1149 19.7477 93.3354C20.659 97.3987 20.6095 97.5052 16.7807 99.2373C13.9864 100.501 11.2674 101.946 8.32886 102.866C6.3105 103.497 5.98773 103.341 5.34827 101.355C4.88069 99.9038 4.56587 98.404 4.18331 96.9256Z" fill="#E75125"/>
<path d="M23.1542 59.9071C19.7878 59.1036 16.4176 58.3142 13.0568 57.4875C12.1955 57.2754 11.9871 56.6285 12.4047 55.903C13.6514 53.7375 14.9145 51.5795 16.2429 49.4635C16.9515 48.3345 18.1398 48.1837 19.288 48.555C22.2027 49.4986 25.0768 50.5654 27.9827 51.5375C28.9818 51.8715 29.1729 52.4063 28.7674 53.3349C27.8271 55.4896 26.4464 57.3613 25.0465 59.2209C24.5864 59.8319 23.8834 59.8716 23.1542 59.9071Z" fill="#ED7D23"/>
<path d="M12.5008 73.171C10.7332 73.171 8.96432 73.2042 7.19773 73.1598C5.95009 73.1285 5.42974 72.4325 5.80716 71.2279C6.41673 69.2814 7.07394 67.35 7.72882 65.418C8.08336 64.3731 8.85735 63.9163 9.94524 63.8864C13.6078 63.7855 17.2288 64.2685 20.8582 64.6356C21.613 64.7122 21.9811 65.1172 21.8457 65.8982C21.465 68.0955 20.691 70.168 19.7012 72.1485C19.2799 72.9921 18.3405 73.1229 17.4652 73.1346C15.8107 73.1561 14.1557 73.1406 12.5008 73.1406V73.171Z" fill="#EB6924"/>
<path d="M131.054 32.4661C131.49 32.3811 131.847 32.5446 132.118 32.8669C133.07 33.9996 134.026 35.1296 134.944 36.2885C135.523 37.0176 135.342 37.7159 134.59 38.1742C131.194 40.2439 127.967 42.6168 124.28 44.1774C122.509 44.9266 121.215 44.147 119.917 41.8358C119.035 40.2654 119.969 39.3494 121.077 38.567C123.634 36.7621 126.243 35.0301 128.822 33.2551C129.501 32.788 130.268 32.6091 131.054 32.4661Z" fill="#F5A31D"/>
<path d="M115.131 37.5177C113.729 37.1823 112.312 36.2234 111.054 35.0612C110.426 34.4806 111.104 33.8925 111.437 33.417C112.725 31.5771 114.469 30.1655 116.068 28.6184C116.478 28.2214 116.893 27.8276 117.294 27.4213C119.795 24.8816 123.322 25.061 125.689 27.8244C126.023 28.2135 125.988 28.5474 125.75 28.8968C125.335 29.5055 124.965 30.1786 124.431 30.6662C122.241 32.6654 120.004 34.6151 117.765 36.5606C117.114 37.1263 116.384 37.5826 115.131 37.5177Z" fill="#F6A91B"/>
<path d="M105.168 33.0781C99.8074 32.9137 99.2524 31.9192 101.942 27.5163C102.924 25.9099 103.946 24.3278 104.932 22.7233C105.517 21.7723 106.275 21.1403 107.457 21.3598C109.137 21.6719 110.811 22.0166 112.48 22.3842C113.449 22.5981 113.838 23.0685 113.25 24.0859C111.556 27.0151 109.369 29.5874 107.358 32.2854C106.8 33.0337 105.921 33.1612 105.168 33.0781Z" fill="#F7AF1A"/>
<path d="M91.1741 31.6425C87.7759 31.6528 87.7301 31.6416 88.5252 28.383C88.982 26.5085 89.6448 24.6854 90.1624 22.8245C90.5561 21.4101 91.4721 20.7772 92.8991 20.7118C94.3243 20.6464 95.7447 20.4843 97.1699 20.4343C99.064 20.3685 99.5876 21.0845 98.9318 22.8418C98.3348 24.4393 97.6393 25.9994 97.0386 27.5955C95.6125 31.3833 95.2744 31.6299 91.1741 31.6425Z" fill="#F8B219"/>
<path d="M80.2474 113.153C80.2787 118.01 80.2152 118.087 75.44 118.921C71.5742 119.596 71.166 119.257 71.3589 115.414C71.4187 114.22 71.5873 113.032 71.6882 111.839C71.8961 109.386 72.1815 108.831 74.6529 108.392C80.3992 107.37 80.0111 107.457 80.246 112.468C80.2568 112.696 80.2474 112.924 80.2474 113.153Z" fill="#ED7D23"/>
<path d="M84.1262 25.2133C83.9973 26.4012 83.8758 27.5899 83.7381 28.7768C83.5886 30.0567 83.7553 31.5127 82.3718 32.2549C80.4875 33.2653 78.4607 33.8099 76.2952 33.6632C75.7319 33.6249 75.532 33.1849 75.4946 32.708C75.3035 30.2697 74.9369 27.8422 75.3956 25.3805C75.5787 24.3982 76.0444 23.8643 76.9356 23.5626C78.669 22.9759 80.4711 22.711 82.2597 22.3714C83.6428 22.1085 84.3121 22.5064 84.0655 24.0082C84.0015 24.3968 84.0561 24.8051 84.0561 25.204C84.0795 25.2072 84.1029 25.21 84.1262 25.2133Z" fill="#F8B917"/>
<path d="M62.12 119.365C60.7846 119.142 59.4136 119.163 58.0665 118.837C57.0472 118.591 56.7081 118.115 56.965 117.162C57.7101 114.405 58.9871 111.859 60.1834 109.284C60.4366 108.739 60.9607 108.51 61.594 108.486C63.3158 108.418 65.0114 108.637 66.7093 108.867C67.63 108.992 67.5753 109.624 67.4543 110.271C66.9919 112.733 66.3127 115.126 65.3239 117.441C64.6952 118.913 63.7091 119.571 62.12 119.365Z" fill="#EC7623"/>
<path d="M49.7828 117.049C48.0498 116.609 46.2496 116.075 44.5909 115.181C43.9473 114.835 44.0902 114.207 44.4452 113.689C46.0259 111.386 47.5145 109.016 49.3199 106.874C50.4223 105.565 51.76 105.67 53.2198 106.17C56.7623 107.385 56.8529 107.635 54.8504 110.81C53.9087 112.304 53.06 113.855 52.1211 115.351C51.6022 116.177 50.9875 116.944 49.7828 117.049Z" fill="#EB7324"/>
<path d="M71.0313 34.4743C70.9954 34.9993 70.7992 35.3903 70.433 35.7098C70.347 35.784 70.255 35.8555 70.1555 35.9092C68.1647 36.992 65.7133 38.9837 63.9496 37.928C61.8368 36.6636 61.4926 33.5027 61.0512 30.9126C60.9386 30.2502 61.4038 29.8747 61.9078 29.5603C63.8552 28.3445 65.9801 27.549 68.1806 26.9399C68.722 26.7904 69.1484 26.8063 69.317 27.534C69.8561 29.8551 70.4554 32.1621 71.0313 34.4743Z" fill="#F6B21A"/>
<path d="M42.7583 100.851C44.2456 101.223 45.4194 102.315 46.5442 103.425C46.9954 103.871 46.4867 104.403 46.2083 104.794C44.4815 107.218 42.2515 109.189 40.206 111.325C39.5502 112.009 38.7048 112.153 37.8719 111.599C36.785 110.876 35.7036 110.14 34.6652 109.349C33.9459 108.802 33.9011 107.985 34.5083 107.413C36.7373 105.31 39.0397 103.284 41.3201 101.236C41.6826 100.911 42.1557 100.906 42.7583 100.851Z" fill="#EA6D24"/>
<path d="M53.5984 45.0602C53.3924 44.9687 53.164 44.9117 52.9893 44.7828C50.9807 43.2997 49.4687 41.3752 48.1304 39.2994C47.7988 38.7851 48.1183 38.4399 48.4583 38.1153C49.9946 36.6486 51.6603 35.3627 53.5699 34.4032C54.3214 34.0258 54.9604 33.9997 55.5518 34.6956C56.9246 36.3114 58.204 37.9859 59.0892 39.9286C59.3592 40.52 59.5922 41.0936 58.9271 41.6107C57.438 42.7681 55.946 43.9196 54.2546 44.7786C54.0543 44.8809 53.8408 44.957 53.5984 45.0602Z" fill="#F7AF1A"/>
<path d="M49.3695 48.5218C48.8454 49.5695 48.028 50.5154 47.1461 51.3996C45.0446 53.5072 44.3757 53.5955 41.8286 52.1521C40.5926 51.4519 39.4071 50.656 38.1403 50.0193C36.8198 49.3555 36.9343 48.4666 37.7302 47.6044C38.9227 46.3124 40.225 45.1184 41.5231 43.9283C42.1542 43.349 42.8805 43.1851 43.7017 43.6966C45.543 44.8424 47.2615 46.1451 48.887 47.5735C49.1355 47.7921 49.4172 48.0192 49.3695 48.5218Z" fill="#F6A41C"/>
<path d="M39.4884 97.4997C39.6795 98.2181 39.2722 98.4951 38.9144 98.7613C36.4466 100.599 33.9551 102.399 31.2912 103.956C30.3481 104.507 29.7633 104.234 29.0939 103.521C26.2306 100.469 26.3217 99.5152 29.8203 97.3665C31.5178 96.324 33.275 95.3757 34.9454 94.293C36.1958 93.4826 37.1324 93.6049 37.9937 94.8334C38.6159 95.7205 39.332 96.5412 39.4884 97.4997Z" fill="#EA6D24"/>
<path d="M33.8751 78.4022C33.8545 81.3361 33.6925 81.5739 30.8198 82.4614C28.5286 83.1695 26.202 83.6922 23.794 83.865C22.8253 83.9346 22.4656 83.5614 22.3185 82.6968C22.0616 81.1918 22.431 79.7442 22.6833 78.2901C22.8131 77.5418 23.5208 77.446 24.1234 77.2756C26.436 76.6211 28.8154 76.3376 31.1874 76.0172C33.7747 75.6678 33.8933 75.7794 33.8751 78.4022Z" fill="#EF8522"/>
<path d="M37.3073 62.6028C34.7662 62.0026 32.2289 61.386 29.6818 60.8124C29.0218 60.6634 29.0227 60.2953 29.1974 59.8114C29.3516 59.3854 29.5286 58.9669 29.7108 58.5516C31.6955 54.0235 32.7997 53.5176 37.3437 55.0782C38.2023 55.373 39.0454 55.713 39.889 56.0489C41.8321 56.8229 41.9741 57.1064 40.9685 58.8767C40.3818 59.9095 39.5975 60.8283 38.9487 61.8288C38.5451 62.4505 38.0065 62.5963 37.3073 62.6028Z" fill="#F3991F"/>
<path d="M23.157 90.5222C23.0262 89.5137 23.2645 88.7243 24.2253 88.3758C26.7902 87.4454 29.3635 86.5359 31.9437 85.6494C33.3679 85.1603 34.2073 85.5158 34.624 87.1539C35.4153 90.2639 35.4998 90.2723 32.5944 91.7404C30.4598 92.8189 28.2616 93.734 25.9942 94.5136C24.862 94.9032 24.2814 94.6897 23.931 93.585C23.605 92.556 23.1767 91.5559 23.157 90.5222Z" fill="#EC7623"/>
<path d="M29.0976 72.4498C27.8957 72.4498 26.692 72.4138 25.492 72.4606C24.4172 72.5021 23.9463 71.9939 24.2126 71.0116C24.6283 69.4786 25.1276 67.9628 25.6919 66.4779C25.9241 65.8669 26.5392 65.6161 27.2357 65.5876C29.8762 65.4792 32.4878 65.7707 35.1031 66.0678C36.3031 66.2042 36.4802 66.8875 36.1653 67.8605C35.815 68.9442 35.4189 70.0129 35.0527 71.0915C34.6953 72.1439 33.8186 72.3816 32.8746 72.4171C31.6171 72.4648 30.3569 72.4288 29.0976 72.4288V72.4498Z" fill="#F18F21"/>
<path d="M90.5955 112.015C91.029 113.486 90.1887 114.144 88.9438 114.665C84.5428 116.508 84.1088 116.284 83.6002 111.692C83.5936 111.635 83.5866 111.579 83.5801 111.522C83.1545 107.861 84.5493 106.297 88.3352 106.081C89.197 106.032 89.6333 106.369 89.7762 107.134C90.078 108.748 90.6553 110.316 90.5955 112.015Z" fill="#ED7D23"/>
<path d="M104.198 47.4199C102.881 47.3522 102.009 46.708 101.16 46.0261C100.577 45.5571 100.914 45.0741 101.248 44.6986C102.8 42.9502 104.319 41.1658 105.98 39.5249C106.97 38.5468 110.858 39.985 111.074 41.3256C111.111 41.5545 110.944 41.88 110.772 42.0692C109.074 43.9241 107.146 45.5272 105.158 47.057C104.862 47.2849 104.429 47.3363 104.198 47.4199Z" fill="#F8B817"/>
<path d="M96.5097 44.3186C96.5704 44.3186 96.4555 44.327 96.342 44.3172C93.3857 44.0607 93.0069 43.3853 94.4292 40.8321C94.9001 39.9862 95.4326 39.1739 95.9567 38.3583C97.4715 36.0027 99.6346 35.5375 102.109 36.9603C102.736 37.3204 102.741 37.7749 102.432 38.2233C101.17 40.0511 99.8892 41.8677 98.5454 43.6352C98.124 44.1892 97.4108 44.3784 96.5097 44.3186Z" fill="#F8B817"/>
<path d="M79.5319 99.9972C79.5786 103.625 77.3557 105.351 74.1378 104.642C73.2535 104.447 73.1059 103.809 73.1298 103.1C73.1545 102.362 73.3297 101.63 73.3745 100.892C73.5815 97.4987 73.8673 97.274 77.2823 96.7915C78.8084 96.5757 79.4133 97.1007 79.4572 98.5375C79.4763 99.1644 79.5212 99.7908 79.5319 99.9972Z" fill="#F3991F"/>
<path d="M87.6917 43.0007C85.7921 43.0007 85.0394 42.1396 85.4337 40.4176C85.5481 39.9182 85.6761 39.4212 85.8148 38.928C86.7504 35.598 88.1812 34.7693 91.6326 35.4653C92.5103 35.6419 92.8116 36.0749 92.586 36.8923C92.0525 38.8234 91.2711 40.6563 90.2775 42.3934C89.5797 43.6144 88.3615 42.627 87.6917 43.0007Z" fill="#F9C014"/>
<path d="M66.3762 104.984C62.7318 104.927 62.4506 104.494 63.8123 101.215C63.9865 100.795 64.1906 100.386 64.3728 99.9687C65.6302 97.082 66.6901 96.6224 69.6866 97.4978C70.4316 97.7154 70.3625 98.1545 70.3069 98.6576C70.0915 100.599 69.4736 102.436 68.6729 104.199C68.1979 105.245 67.1067 104.859 66.3762 104.984Z" fill="#F3991F"/>
<path d="M76.111 41.0912C76.1403 38.6557 77.3798 37.1762 79.8296 36.6528C82.1428 36.1586 82.4342 36.4141 82.2282 38.7912C82.1787 39.3596 82.0704 39.9225 82.012 40.49C81.7102 43.4361 79.839 44.815 76.8435 44.3675C76.2301 44.2755 76.0914 44.0223 76.1054 43.4893C76.1269 42.6906 76.111 41.8904 76.111 41.0912Z" fill="#F9C014"/>
<path d="M72.7188 44.3249C72.7496 45.8135 70.3823 47.5409 68.2603 47.5778C67.5269 47.5909 65.9584 44.2669 65.858 42.4873C65.8089 41.6199 69.1043 39.6599 70.7939 39.552C71.8103 39.4871 72.6623 41.5993 72.7188 44.3249Z" fill="#F8B917"/>
<path d="M57.9499 103.414C56.6766 103.344 55.5327 102.806 54.3439 102.427C53.6385 102.202 53.9141 101.768 54.1005 101.357C54.9576 99.4704 56.2072 97.8383 57.6356 96.3763C58.6524 95.3351 61.0146 95.5612 62.0502 96.5636C62.4682 96.9686 62.4061 97.3254 62.1875 97.7781C61.2949 99.6297 60.1112 101.301 58.9897 103.013C58.7295 103.41 58.368 103.466 57.9499 103.414Z" fill="#F19120"/>
<path d="M52.6794 92.0674C53.9177 92.3607 54.8953 93.0151 55.4484 94.0189C55.8772 94.7967 55.0042 95.3348 54.5464 95.8621C53.5772 96.9795 52.6121 98.1173 51.5196 99.1081C50.072 100.42 47.1676 99.4645 46.6164 97.582C46.5262 97.2751 46.5748 96.993 46.8023 96.8043C48.5474 95.3558 50.0389 93.6149 51.9409 92.3504C52.1679 92.1991 52.4613 92.1482 52.6794 92.0674Z" fill="#F18F21"/>
<path d="M64.5994 48.8539C64.69 49.5704 64.335 49.8189 64.0702 50.0917C63.348 50.8363 62.4886 51.3865 61.5731 51.8765C60.6127 52.3903 59.8429 52.3076 59.1847 51.4071C58.9498 51.0852 58.6508 50.8106 58.4028 50.4972C57.6886 49.5933 56.4181 48.98 56.6269 47.5782C56.7287 46.8911 60.5286 44.5248 61.2853 44.5411C61.4418 44.5444 61.6104 44.5929 61.7492 44.6658C62.1742 44.8886 64.5845 48.6395 64.5994 48.8539Z" fill="#F8B218"/>
<path d="M57.5264 54.4168C57.5357 56.3726 54.1791 58.4905 52.4737 57.6282C52.1197 57.4493 51.767 57.2582 51.4452 57.0284C50.4979 56.353 48.6388 55.8761 48.8541 54.8961C49.2059 53.2925 50.7664 52.1607 52.2598 51.2821C52.6736 51.0383 53.1323 51.1532 53.5443 51.4334C54.7168 52.2313 55.8981 53.016 57.0798 53.7998C57.3204 53.9591 57.5684 54.0983 57.5264 54.4168Z" fill="#F7B01A"/>
<path d="M48.4237 64.8617C46.7893 64.4277 45.0951 63.9756 43.399 63.529C42.8114 63.3749 42.6984 62.9783 42.9109 62.4888C43.4331 61.286 44.0833 60.1579 45.0344 59.2326C45.5837 58.6977 46.2152 58.6552 46.9261 58.8958C48.2125 59.3307 49.4999 59.7726 50.8115 60.1196C51.7639 60.3714 52.005 60.8801 51.6308 61.7274C51.0002 63.1544 50.2309 64.4529 48.4237 64.8617Z" fill="#F1A71E"/>
<path d="M38.395 84.9785C38.3488 84.0532 38.7113 83.5029 39.4325 83.2511C41.4186 82.5575 43.4216 81.912 45.4082 81.2197C46.1896 80.9474 46.6208 81.1132 46.6343 81.9965C46.6352 82.0526 46.6595 82.1077 46.6703 82.1637C47.299 85.3835 47.8558 84.4385 44.9733 85.9094C43.8616 86.4765 42.6947 86.9478 41.5218 87.3785C39.4059 88.1548 39.2961 88.0735 38.6454 85.8244C38.5506 85.4974 38.4525 85.1723 38.395 84.9785Z" fill="#F3991F"/>
<path d="M43.9219 94.5818C42.5159 94.2926 42.1291 93.0735 41.5485 92.0865C41.073 91.2784 41.7223 90.823 42.2875 90.4306C43.878 89.3255 45.5652 88.3926 47.2925 87.5075C48.8634 86.7027 49.2604 87.8401 49.9167 88.7514C50.5875 89.6833 50.4744 90.3867 49.5192 91.0374C48.1081 91.9978 46.7469 93.0315 45.3335 93.9876C44.9224 94.2655 44.4039 94.3847 43.9219 94.5818Z" fill="#F19120"/>
<path d="M42.7122 71.9837C42.5436 71.9748 41.9998 72.0463 41.5257 71.8973C40.7232 71.645 39.3359 72.4559 39.1888 71.0308C38.9781 68.9867 40.5663 66.9772 42.1502 66.9511C43.7515 66.9249 45.3368 67.0828 46.9283 67.2818C47.8961 67.4032 48.0367 67.8278 47.9101 68.6373C47.5014 71.2456 46.7596 71.7637 42.7122 71.9837Z" fill="#F5A21D"/>
<path d="M46.1643 76.1459C46.4749 77.9825 45.5435 78.8509 43.7218 79.1078C42.1532 79.3292 40.6076 79.7141 39.0507 80.0205C38.2884 80.1705 37.9815 79.9009 37.8596 79.076C37.4822 76.5196 38.1118 75.4779 40.645 75.0001C41.9809 74.7483 43.3472 74.6591 44.6966 74.4746C45.969 74.3004 46.5356 74.7614 46.1643 76.1459Z" fill="#F3991F"/>
<path d="M82.2074 97.7841C82.1826 96.7345 83.5942 95.7578 85.0987 95.7835C85.8965 95.7975 87.118 97.9429 87.1255 99.3442C87.1297 100.145 85.3103 101.225 83.8758 101.272C82.9729 101.302 82.2545 99.8006 82.2074 97.7841Z" fill="#F49E1E"/>
<path d="M107.064 1.45044H100.879C95.5541 1.45044 95.4023 3.58791 95.4023 3.58791C95.4023 3.58791 95.4027 3.58838 95.4032 3.58838C93.9272 7.4149 92.6959 11.3232 91.9527 15.3692C91.7677 16.374 92.154 16.8439 93.2139 16.8672C95.6746 16.9209 98.1306 16.8873 100.564 16.5043C101.5 16.3572 102.293 15.8667 102.698 14.961C104.346 11.2779 106.158 7.65873 107.318 3.77989C107.539 3.04233 107.931 2.13662 107.064 1.45044Z" fill="#F4A11D"/>
<path d="M16.7059 77.9246C13.6581 78.3557 10.6172 78.8653 7.55581 79.1629C5.37303 79.3749 3.83625 80.1835 3.29395 82.4181V88.2504C3.97452 88.5736 4.69713 88.7152 5.43329 88.5788C9.12855 87.8949 12.8205 87.1859 16.4322 86.1335C17.7322 85.7551 18.374 84.8354 18.4141 83.463C18.4487 82.2677 18.53 81.0715 18.6481 79.8813C18.7939 78.4136 18.2483 77.7064 16.7059 77.9246Z" fill="#E75B25"/>
</g>
</g>
<path d="M324.731 107.328V106.679C324.744 104.452 324.941 102.677 325.323 101.353C325.717 100.03 326.29 98.9611 327.04 98.1467C327.791 97.3323 328.695 96.5943 329.751 95.9326C330.54 95.4236 331.246 94.8955 331.869 94.3483C332.493 93.8012 332.989 93.1967 333.358 92.535C333.727 91.8606 333.912 91.1098 333.912 90.2827C333.912 89.4047 333.702 88.6348 333.282 87.9731C332.862 87.3114 332.296 86.8025 331.583 86.4462C330.883 86.0899 330.107 85.9117 329.255 85.9117C328.427 85.9117 327.645 86.0962 326.907 86.4652C326.169 86.8215 325.564 87.356 325.093 88.0686C324.623 88.7685 324.368 89.6401 324.33 90.6835H316.542C316.606 88.1386 317.217 86.039 318.375 84.3847C319.533 82.7178 321.066 81.4771 322.975 80.6627C324.884 79.8356 326.989 79.422 329.293 79.422C331.825 79.422 334.065 79.8419 336.011 80.6818C337.958 81.5089 339.485 82.7114 340.592 84.2893C341.699 85.8672 342.253 87.7695 342.253 89.9964C342.253 91.4852 342.005 92.8086 341.509 93.9666C341.025 95.1118 340.344 96.1298 339.466 97.0206C338.588 97.8986 337.551 98.6939 336.355 99.4065C335.35 100.005 334.523 100.628 333.874 101.277C333.237 101.926 332.76 102.677 332.442 103.529C332.137 104.382 331.978 105.432 331.965 106.679V107.328H324.731ZM328.51 119.544C327.238 119.544 326.15 119.098 325.246 118.208C324.355 117.304 323.916 116.222 323.929 114.963C323.916 113.716 324.355 112.647 325.246 111.756C326.15 110.865 327.238 110.42 328.51 110.42C329.719 110.42 330.782 110.865 331.698 111.756C332.614 112.647 333.078 113.716 333.091 114.963C333.078 115.803 332.856 116.572 332.423 117.272C332.003 117.959 331.45 118.513 330.762 118.933C330.075 119.34 329.325 119.544 328.51 119.544Z" fill="#E96F4B"/>
<defs>
<clipPath id="clip0_3_2262">
<rect width="288" height="139.095" fill="white" transform="translate(0.5)"/>
</clipPath>
</defs>
</svg>

