<svg width="171" height="90" viewBox="0 0 171 90" fill="none" xmlns="http://www.w3.org/2000/svg">
<path fill-rule="evenodd" clip-rule="evenodd" d="M57.9131 34.6985H65.0735L71.6893 62.9165L66.3919 70.6075L57.9131 34.6985ZM72.4992 62.174L70.5581 54.589L84.4338 34.6985H91.5943L72.4992 62.174ZM97.3636 34.7516H103.888L95.5116 70.6075H88.9877L97.3636 34.7516ZM111.114 34.6985H118.274L124.89 62.9165L119.592 70.6075L111.114 34.6985ZM125.7 62.174L123.759 54.589L137.634 34.6985H144.795L125.7 62.174ZM166.695 58.5672L169.504 70.6075H162.344L160.869 63.9773H147.662L142.984 70.6075H135.823L161.079 34.6985L166.387 57.6125H159.439L157.744 49.6563L151.55 58.4611L166.695 58.5672Z" fill="#246DB3"/>
<path fill-rule="evenodd" clip-rule="evenodd" d="M82.4024 19.6372C84.0266 19.8827 88.8364 16.5415 90.4632 15.5804C91.4078 15.0223 93.8248 14.0381 93.4514 12.782C93.3974 12.6004 90.6617 9.63258 90.5078 9.52461C89.1938 8.60075 87.4239 10.3619 86.4897 10.9995C85.4959 11.6777 79.6817 15.3286 79.6644 16.2631C79.6501 17.0184 82.0268 19.3772 82.4024 19.6372Z" fill="#F46D16"/>
<path fill-rule="evenodd" clip-rule="evenodd" d="M85.3609 5.69451C84.3558 5.02569 82.8432 4.35972 81.6075 3.73331C78.9941 2.40857 78.1284 5.55565 74.949 8.20051C70.5776 11.8373 72.7862 12.1653 73.8348 12.7039C74.4001 12.9941 75.262 13.5818 75.7694 13.7659C77.5732 14.4216 79.3605 11.8995 81.111 10.3978C81.7689 9.83328 81.9884 9.66281 82.682 8.99073C83.2426 8.44756 83.7505 8.19264 84.3016 7.62616C85.0159 6.89236 85.4356 6.88813 85.3609 5.69451Z" fill="#F57D14"/>
<path fill-rule="evenodd" clip-rule="evenodd" d="M48.6565 72.7205C48.5366 73.3745 49.0048 77.6255 49.2406 78.7098C49.4036 79.4589 49.1847 79.0175 49.5801 79.4024C50.5281 79.9048 53.3117 79.0281 54.454 78.7992C57.0286 78.2829 56.0288 77.4911 54.8374 72.7943C54.5784 71.7736 54.5416 71.2042 53.24 71.3606C52.0476 71.5039 49.5201 72.1293 48.6565 72.7205Z" fill="#F25C19"/>
<path fill-rule="evenodd" clip-rule="evenodd" d="M63.2333 9.20817C63.7935 9.59838 66.6074 10.216 67.5326 10.3001C69.262 10.4572 69.9011 8.96983 70.5957 8.01825C76.0958 0.484777 76.2555 1.59593 70.309 0.511495C68.2336 0.132809 67.8057 0.895869 66.9969 2.23745C66.2599 3.45991 63.0674 8.07585 63.2333 9.20817Z" fill="#F78D11"/>
<path fill-rule="evenodd" clip-rule="evenodd" d="M53.18 9.13085C54.1934 9.39651 56.3489 9.23452 57.5908 9.16264C59.4039 9.05762 59.6147 8.41552 60.1986 6.95397C60.7994 5.44996 62.8617 1.45958 62.5724 0.137206C61.5004 -0.156661 59.4688 0.101263 58.17 0.179084C56.2885 0.292001 55.5336 0.212657 55.0346 1.79501C54.5715 3.26356 52.9467 8.00058 53.18 9.13085Z" fill="#F7980F"/>
<path fill-rule="evenodd" clip-rule="evenodd" d="M46.6557 80.6535C46.8498 79.2705 46.7143 77.8193 46.6905 76.4205C46.6747 75.4934 47.0334 73.1631 46.2402 72.6648C45.6412 72.2884 43.4948 72.7439 42.6755 72.8407C39.304 73.2391 39.9726 73.4684 39.4946 78.0106C39.027 82.4516 38.7466 82.0277 43.4347 81.5427C45.1747 81.3628 45.3409 81.5968 46.6557 80.6535Z" fill="#F2521B"/>
<path fill-rule="evenodd" clip-rule="evenodd" d="M42.8713 11.1117C43.9683 11.4099 45.0845 10.9244 46.2288 10.6458C47.4023 10.3601 48.8277 10.1725 49.248 9.3146C49.5865 8.62347 50.2548 2.19921 49.8177 1.76575C49.2857 1.2382 43.8018 2.77925 43.2034 3.26054C42.3452 3.95066 42.5389 9.7391 42.8713 11.1117Z" fill="#F89C0E"/>
<path fill-rule="evenodd" clip-rule="evenodd" d="M27.5042 81.0968C28.5032 81.4129 30.0444 81.518 31.2992 81.6728C33.0254 81.8861 33.8934 82.1491 34.436 80.4862C37.1809 72.0763 36.9291 73.2673 32.562 72.8204C30.5376 72.6133 30.3621 72.9449 29.7119 74.5702C29.1134 76.067 27.2615 79.7162 27.5042 81.0968Z" fill="#F1491C"/>
<path fill-rule="evenodd" clip-rule="evenodd" d="M33.3451 15.1273C34.2411 15.3617 35.4888 14.5091 36.3805 14.1183C39.7943 12.6215 39.4399 12.96 38.3932 8.6371C38.152 7.64111 38.0289 5.61887 36.954 5.60593C36.0203 5.59456 31.2991 8.07062 31.0396 8.617C30.6748 9.3851 32.7079 14.6707 33.3451 15.1273Z" fill="#F89C0E"/>
<path fill-rule="evenodd" clip-rule="evenodd" d="M22.4942 70.4361C21.4932 70.8054 20.8115 72.1184 20.191 72.9926C17.4283 76.8861 16.0973 77.5924 18.5608 78.507C23.1918 80.2261 22.0596 81.0573 26.2271 74.0572C26.9934 72.7701 27.8377 72.0717 26.06 71.4051C25.3045 71.1222 23.147 70.1954 22.4942 70.4361Z" fill="#F14B1C"/>
<path fill-rule="evenodd" clip-rule="evenodd" d="M29.7783 17.2431C29.7102 16.4128 28.5894 15.0068 28.1177 14.3308C27.5356 13.4969 26.9783 12.5404 26.2509 11.7198C24.8528 11.7317 23.4458 13.1157 21.8466 14.2697C19.9263 15.6556 19.6086 15.707 23.7097 19.9355C25.0999 21.3689 25.1133 20.935 27.9239 18.9652C28.6328 18.4684 29.3741 18.1097 29.7783 17.2431Z" fill="#F7980F"/>
<path fill-rule="evenodd" clip-rule="evenodd" d="M15.4972 66.2435C14.7428 66.622 11.2391 69.9024 10.2165 70.7628C8.11515 72.5305 9.5215 72.8993 11.4785 74.4665C13.8311 76.3502 13.7738 74.7863 16.9349 71.7166C20.6297 68.1286 20.0117 69.0253 17.224 66.7287C16.7022 66.299 16.2831 65.849 15.4972 66.2435Z" fill="#F0401E"/>
<path fill-rule="evenodd" clip-rule="evenodd" d="M15.7522 19.6275C14.7295 20.1508 14.19 21.0853 13.4125 21.9316C12.913 22.4754 11.1673 23.5227 11.9841 24.4926C11.9857 24.4942 16.9865 27.7346 17.9586 27.4782C18.5925 27.3112 19.8711 25.7428 20.3255 25.2642C22.6784 22.786 22.3914 23.6457 17.4089 19.8796C16.7315 19.3675 16.5655 19.2112 15.7522 19.6275Z" fill="#F78D11"/>
<path fill-rule="evenodd" clip-rule="evenodd" d="M3.56108 64.8259C3.50752 65.9035 3.57566 65.7161 4.13887 66.5068C5.85993 68.9219 5.62084 69.8115 7.86244 68.2085C14.3404 63.5761 14.7109 64.7247 12.361 61.2677C11.3374 59.7616 10.7597 60.3331 9.4017 61.2061C7.42545 62.4761 5.49961 63.465 3.56108 64.8259Z" fill="#F0401E"/>
<path fill-rule="evenodd" clip-rule="evenodd" d="M1.77783 61.1366C3.01996 61.3189 6.84523 59.2995 8.12241 58.7401C9.12603 58.3003 10.3957 58.0037 10.1657 56.709C9.35844 52.1611 9.34439 53.1922 2.58829 55.5787C1.26728 56.0455 0.268556 56.1086 0.653503 57.8523C0.894964 58.9457 1.17552 60.4657 1.77783 61.1366Z" fill="#F1491C"/>
<path fill-rule="evenodd" clip-rule="evenodd" d="M15.4258 30.3674C14.9979 30.057 9.81638 28.2324 9.10058 28.184C7.90338 28.103 7.46065 29.2537 6.93716 30.1498C4.69004 33.9958 4.49226 33.3782 8.2224 34.2401C12.9071 35.3225 12.5154 35.7928 14.0627 33.301C14.5889 32.4537 15.5075 31.4395 15.4258 30.3674Z" fill="#F47216"/>
<path fill-rule="evenodd" clip-rule="evenodd" d="M7.71628 45.9412C6.57633 46.1076 1.64583 46.7256 0.988691 47.0391C0.00459138 47.5083 0.189226 48.7421 0.107038 50.111C0.012748 51.6817 -0.415608 52.6992 1.49803 52.3296C3.28828 51.9839 6.08425 51.4256 7.8322 50.9094C9.27102 50.4843 9.0254 49.6318 9.1059 48.2269C9.20451 46.5123 9.6487 45.6591 7.71628 45.9412Z" fill="#F2521B"/>
<path fill-rule="evenodd" clip-rule="evenodd" d="M11.1244 38.0945C10.3526 37.8193 5.0542 37.3993 3.9626 37.4894C2.64007 37.5985 2.67869 38.352 2.27538 39.5843C2.07791 40.1874 1.2856 42.1405 1.43998 42.6036C1.72232 43.451 3.80269 43.1027 4.75649 43.0889C9.80421 43.0154 9.63537 43.554 10.4705 41.0229C10.7872 40.0628 11.3233 38.9987 11.1244 38.0945Z" fill="#F35E19"/>
<path fill-rule="evenodd" clip-rule="evenodd" d="M71.4852 25.9297C72.8419 26.028 75.9165 23.8197 77.5136 22.8808C80.1283 21.3435 79.6195 21.6764 77.1129 18.6321C75.8009 18.5454 75.1351 19.2278 74.282 19.8469C70.0056 22.9494 68.1113 22.8622 71.4852 25.9297Z" fill="#F89A0F"/>
<path fill-rule="evenodd" clip-rule="evenodd" d="M64.4519 20.0233C64.7817 20.5014 66.5116 21.543 67.041 21.6931C68.2915 22.0478 69.8673 19.924 70.5996 19.344C71.8291 18.3702 73.5725 17.1591 73.6575 15.977C70.1098 13.5113 69.6732 14.2199 68.4212 15.5763C67.4564 16.6214 64.7848 18.7389 64.4519 20.0233Z" fill="#F8A10E"/>
<path fill-rule="evenodd" clip-rule="evenodd" d="M58.0225 18.2241C58.6683 18.592 60.0849 18.9425 60.9961 19.0381C62.3225 19.1771 62.6797 18.2942 63.2235 17.5245C63.858 16.6265 66.1652 13.8767 66.2364 12.929C65.6778 12.4156 64.2813 12.2774 63.3286 12.0797C61.6947 11.7405 61.4668 11.9251 60.7953 13.1132C60.1755 14.2101 58.0517 17.1287 58.0225 18.2241Z" fill="#F9A70D"/>
<path fill-rule="evenodd" clip-rule="evenodd" d="M50.8673 18.0138C51.8516 18.2425 53.0027 18.1649 54.0189 18.0978C55.8116 17.9795 55.6372 17.0842 56.8573 14.1371C57.0467 13.6796 57.653 12.5352 57.6132 12.0552C57.5278 11.0245 55.7622 11.5304 54.3907 11.5704C53.0584 11.6091 52.5923 11.5769 52.1842 12.6515C51.8307 13.5819 50.7188 17.1511 50.8673 18.0138Z" fill="#F9AC0C"/>
<path fill-rule="evenodd" clip-rule="evenodd" d="M45.8513 69.8489C46.438 69.1745 46.1154 64.457 45.9536 64.2201C45.5795 63.6722 41.644 64.0594 41.2492 65.0768C41.075 65.5253 40.6478 70.0793 40.8052 70.3654C41.2283 71.1341 45.4192 70.3773 45.8513 69.8489Z" fill="#F47216"/>
<path fill-rule="evenodd" clip-rule="evenodd" d="M43.4398 19.2686C44.3118 19.6964 47.4655 18.9008 47.9465 18.125C48.3495 17.4749 48.6272 13.3221 48.4464 12.4993C47.5884 12.3917 44.0921 13.1335 43.575 13.5638C42.8466 14.1699 43.2305 18.853 43.4398 19.2686Z" fill="#F7B30B"/>
<path fill-rule="evenodd" clip-rule="evenodd" d="M32.157 70.2646C32.9008 70.7586 35.7465 70.9878 36.5391 70.7297C37.4197 70.0625 38.6081 65.9892 38.5472 64.6567C37.8643 64.4324 36.6139 64.3484 35.7293 64.2966C34.344 64.2155 34.2335 64.3934 33.7745 65.5271C33.3116 66.6708 32.0137 69.1383 32.157 70.2646Z" fill="#F46B17"/>
<path fill-rule="evenodd" clip-rule="evenodd" d="M31.7586 63.6687C27.943 61.973 28.2698 62.2983 25.5999 66.0888C23.9562 68.4226 23.9082 68.1389 27.0436 69.2387C28.8492 69.872 28.9674 69.0152 30.6521 66.1697C31.1189 65.381 31.8047 64.7102 31.7586 63.6687Z" fill="#F36717"/>
<path fill-rule="evenodd" clip-rule="evenodd" d="M36.3311 22.1566C37.1386 22.1939 40.3204 20.919 40.5582 20.2913C40.7658 19.7435 39.7301 16.0076 39.5247 15.265C38.5648 15.1544 35.0836 16.6716 34.7244 17.243C34.3126 17.8979 35.7625 21.5755 36.3311 22.1566Z" fill="#F6AB0D"/>
<path fill-rule="evenodd" clip-rule="evenodd" d="M26.1296 61.3586C25.8589 61.0423 24.5924 60.0921 24.1112 59.827C22.9738 59.2001 21.8069 60.8026 20.947 61.6256C20.6096 61.9485 20.3207 62.111 19.9526 62.4291C18.9804 63.2684 18.1971 63.9011 18.5458 64.5766C18.6419 64.7629 20.2713 65.9518 20.611 66.1451C21.7461 66.791 22.27 65.9583 22.8528 65.328C23.547 64.5773 25.991 62.288 26.1296 61.3586Z" fill="#F36218"/>
<path fill-rule="evenodd" clip-rule="evenodd" d="M26.7441 22.4063C26.9343 23.1862 29.534 26.2146 30.1751 26.2228C31.0027 25.9928 33.0456 24.4645 33.7231 23.855C33.6703 22.7373 31.3376 19.7059 30.9239 19.6099C30.1067 19.4203 27.1918 21.733 26.7441 22.4063Z" fill="#F9A70D"/>
<path fill-rule="evenodd" clip-rule="evenodd" d="M14.1272 58.8914C14.1965 59.8132 15.4654 61.4971 16.0757 61.8465C16.7398 61.9788 21.7512 58.2505 21.7917 58.1519C21.8047 57.3058 21.222 56.5754 20.6843 55.9155C19.9032 54.9566 19.4332 55.5408 18.4436 56.1452C17.1523 56.9338 15.1559 57.9131 14.1272 58.8914Z" fill="#F36218"/>
<path fill-rule="evenodd" clip-rule="evenodd" d="M20.2703 28.7933C20.791 29.0984 23.8126 30.9485 24.3148 31.0774C25.5881 31.4042 27.6389 28.4907 27.7672 28.1652C27.4981 27.6096 24.33 25.225 23.7915 25.1752C23.0004 25.1018 22.2198 26.2564 21.7652 26.7085C20.9764 27.4928 20.334 27.5822 20.2703 28.7933Z" fill="#F89A0F"/>
<path fill-rule="evenodd" clip-rule="evenodd" d="M11.7041 45.8251C11.4509 46.7252 11.1806 48.5199 11.593 49.5211C12.5953 49.7586 17.3098 48.717 18.0732 48.0233C18.4538 47.2014 18.4138 45.7668 18.2858 44.8016C17.1973 44.5651 12.6141 45.3355 11.7041 45.8251Z" fill="#F57A14"/>
<path fill-rule="evenodd" clip-rule="evenodd" d="M15.4427 35.5707C16.5812 35.8702 19.9192 36.787 21.0739 36.6825C21.7391 35.913 22.9838 34.325 23.0287 33.3284C22.6211 32.9322 18.8621 31.6094 18.2265 31.5904C16.996 31.5538 15.4296 34.7608 15.4427 35.5707Z" fill="#F78D11"/>
<path fill-rule="evenodd" clip-rule="evenodd" d="M12.75 56.0948C13.7614 56.1484 18.4677 53.9804 19.0686 53.3851C19.1963 52.4928 18.7065 51.1191 18.4255 50.4469C17.3082 50.2687 14.6359 51.5068 13.4289 51.9275C12.445 52.2704 11.7247 52.2828 11.88 53.5434C11.9786 54.3422 12.4089 55.611 12.75 56.0948Z" fill="#F46B17"/>
<path fill-rule="evenodd" clip-rule="evenodd" d="M12.5794 42.5733C13.3293 42.7468 17.2108 42.7335 18.0407 42.6124C19.0018 42.4721 18.9765 42.1187 19.3122 41.1306C19.5872 40.3209 19.9203 39.7799 19.7621 38.9773C19.0279 38.7106 15.191 38.3934 14.3045 38.509C13.3393 38.6349 13.3556 39.1954 13.0189 40.2008C12.7381 41.0399 12.2926 41.7357 12.5794 42.5733Z" fill="#F68213"/>
<path fill-rule="evenodd" clip-rule="evenodd" d="M58.4487 26.5351C59.6469 27.6722 60.7011 28.105 61.8543 26.8777C62.6925 25.9856 64.2477 25.0306 64.7863 23.995C64.4373 23.4712 63.5922 23.0036 63.133 22.7917C61.9859 22.2622 61.7113 22.7146 61.1218 23.3648C60.4772 24.0758 58.7435 25.7255 58.4487 26.5351Z" fill="#F7B30B"/>
<path fill-rule="evenodd" clip-rule="evenodd" d="M54.0208 25.209C57.1376 26.5062 57.1723 25.3853 58.4127 23.6334C58.8944 22.9528 59.6399 22.287 59.6848 21.4893C58.9987 21.1516 57.4768 20.7844 56.5271 20.8394C55.9002 21.6071 54.138 24.3268 54.0208 25.209Z" fill="#F7B30B"/>
<path fill-rule="evenodd" clip-rule="evenodd" d="M47.9648 60.0054C48.3992 60.0678 49.2421 59.7215 49.7287 59.5271C50.2034 59.3376 50.0604 59.4641 50.3357 59.1654C50.4519 58.709 49.7498 57.0268 49.4824 56.5932C48.9444 56.6043 47.4241 57.0086 47.3072 57.529C47.2577 57.7492 47.6311 59.6838 47.9648 60.0054Z" fill="#F79410"/>
<path fill-rule="evenodd" clip-rule="evenodd" d="M49.0258 24.9969L51.9712 24.9985C52.4717 24.3756 53.8746 21.2488 53.6416 20.5781C53.5676 20.545 50.5414 19.8462 49.9729 21.1535C49.6767 21.8349 48.9858 24.2878 49.0258 24.9969Z" fill="#F8BC0A"/>
<path fill-rule="evenodd" clip-rule="evenodd" d="M42.1485 61.9237C42.625 62.1567 45.2413 61.7671 45.539 61.3894C45.8484 60.6927 45.7405 59.2614 45.6969 58.3248C45.6267 56.818 45.1606 57.1854 43.7471 57.4074C41.9415 57.691 42.2554 57.9119 41.9715 60.4703C41.9606 60.5674 41.9088 61.1114 41.9112 61.1531C41.944 61.7228 41.8299 60.9496 41.9538 61.4821C42.082 62.0327 41.8642 61.5745 42.1485 61.9237Z" fill="#F78D11"/>
<path fill-rule="evenodd" clip-rule="evenodd" d="M35.7983 61.8813C36.7041 62.2219 38.09 62.2801 39.1059 62.0981C39.4655 61.4688 40.3904 58.6991 40.2839 57.7878C37.6394 57.3081 37.3516 57.4715 36.9205 58.5403C36.5632 59.4268 35.7583 60.9394 35.7983 61.8813Z" fill="#F78D11"/>
<path fill-rule="evenodd" clip-rule="evenodd" d="M43.7363 21.8577L43.6555 25.7731C44.774 25.962 46.0457 25.5099 46.9343 25.2479C47.2348 24.322 47.4624 22.2203 47.3619 21.1C46.4492 20.8415 44.388 21.4745 43.7363 21.8577Z" fill="#F8BC0A"/>
<path fill-rule="evenodd" clip-rule="evenodd" d="M37.5193 24.1504C37.4791 25.2085 38.2776 26.9553 38.6436 27.7749C39.5755 27.7101 40.9509 27.1001 41.6694 26.5766C41.8785 25.5937 41.2941 23.6116 40.962 22.8208C39.8691 22.8777 38.3655 23.7623 37.5193 24.1504Z" fill="#F7B30B"/>
<path fill-rule="evenodd" clip-rule="evenodd" d="M30.3184 60.5995C31.3772 60.8526 32.0178 61.3105 33.2277 61.3266C33.824 60.4202 35.3743 58.2458 35.5381 57.3568C35.0451 56.8696 33.3639 55.8646 32.22 57.4155C31.4397 58.4736 30.3873 59.6667 30.3184 60.5995Z" fill="#F68512"/>
<path fill-rule="evenodd" clip-rule="evenodd" d="M25.8748 57.5849C25.9978 57.8879 27.5751 60.0392 28.935 58.7069C29.5716 58.0833 31.1464 56.4686 31.4727 55.7681C31.2846 55.4429 30.6498 54.8315 30.1461 54.5834C29.0266 54.032 28.1724 55.5407 27.1791 56.3439C26.5758 56.8316 26.2658 56.9208 25.8748 57.5849Z" fill="#F68213"/>
<path fill-rule="evenodd" clip-rule="evenodd" d="M31.844 27.8062C32.0489 28.4392 32.4335 28.845 32.8531 29.2621C33.4186 29.8239 33.6323 30.2236 34.1467 30.5773C35.0951 30.4444 36.5121 29.4254 36.8792 28.7609C36.723 28.1652 35.3264 26.1367 34.9987 25.8186C34.1505 25.8921 32.1272 27.3631 31.844 27.8062Z" fill="#F9AC0C"/>
<path fill-rule="evenodd" clip-rule="evenodd" d="M22.7859 53.9809C22.9016 54.6318 23.5554 55.522 24.0192 55.972C24.9972 56.0244 25.6736 55.2704 26.384 54.7609C27.0941 54.2513 27.9765 53.865 28.3586 53.1865C28.1988 52.6845 27.5035 51.6954 27.2431 51.4361C26.3173 51.5224 23.2675 53.3787 22.7859 53.9809Z" fill="#F68512"/>
<path fill-rule="evenodd" clip-rule="evenodd" d="M27.1567 32.1369C27.4511 32.62 29.6019 33.8959 30.0934 34.011C31.0253 34.2294 32.4598 32.5442 32.6124 31.6488C31.9837 31.3532 30.0934 29.8422 29.7417 29.8119C29.0958 29.7565 27.4853 31.5673 27.1567 32.1369Z" fill="#F9A70D"/>
<path fill-rule="evenodd" clip-rule="evenodd" d="M21.6857 51.9439C22.6285 51.9697 25.7631 50.4719 26.396 50.0541L25.9088 47.8176C24.7894 47.9064 23.2106 48.6159 22.1795 48.9635C21.374 49.2352 20.406 49.2896 21.6857 51.9439Z" fill="#F78D11"/>
<path fill-rule="evenodd" clip-rule="evenodd" d="M23.6392 37.1515C24.0762 37.3436 26.5828 38.0602 27.2373 38.0572C28.1637 38.053 29.1168 36.4544 29.1978 35.488C28.7029 35.3382 25.9066 34.3606 25.6145 34.387C24.8998 34.4516 23.7446 36.343 23.6392 37.1515Z" fill="#F19E10"/>
<path fill-rule="evenodd" clip-rule="evenodd" d="M21.5001 42.2027C22.544 42.4803 24.871 42.3765 25.9851 42.2208C26.366 41.6986 26.881 40.6083 26.8043 39.683C26.2521 39.4759 23.4235 39.2272 22.8503 39.3351C22.0072 39.494 21.4758 41.3539 21.5001 42.2027Z" fill="#F7980F"/>
<path fill-rule="evenodd" clip-rule="evenodd" d="M20.7778 47.2768C21.8103 47.3071 24.81 46.5768 25.629 46.263L25.8205 43.9012C24.6728 43.6769 23.1491 44.0802 22.0398 44.2577C20.4444 44.5129 20.6714 45.6166 20.7778 47.2768Z" fill="#F78D11"/>
<path fill-rule="evenodd" clip-rule="evenodd" d="M52.3845 67.4333C52.7601 66.82 51.8747 63.12 51.715 62.9537C51.3449 62.5689 48.2742 63.401 48.0962 64.2608C48.0181 64.64 48.2865 68.3103 48.4496 68.5162C48.8878 69.0698 52.1121 67.9103 52.3845 67.4333Z" fill="#F47216"/>
<path fill-rule="evenodd" clip-rule="evenodd" d="M64.846 83.6502H67.6732C67.6812 83.9768 67.7703 84.2156 67.9554 84.3539C68.1279 84.492 68.414 84.5674 68.816 84.5674C69.1553 84.5674 69.4448 84.5047 69.6565 84.3914C69.8682 84.2784 70.0025 84.1151 70.0439 83.914C70.1114 83.5874 69.7635 83.3234 68.9908 83.1098C68.8352 83.072 68.7147 83.047 68.6319 83.022C68.0022 82.846 67.5055 82.6951 67.1446 82.5569C66.7708 82.4188 66.5106 82.2805 66.3604 82.1548C66.0603 81.9036 65.8686 81.6146 65.7652 81.2627C65.6617 80.911 65.654 80.5213 65.7472 80.0689C65.9311 79.1769 66.4155 78.4731 67.2002 77.958C67.9724 77.4428 68.9541 77.1915 70.1352 77.1915C71.3038 77.1915 72.1594 77.4301 72.7242 77.9202C73.2893 78.4103 73.5211 79.114 73.42 80.0313H70.6683C70.6848 79.7673 70.6007 79.5664 70.4381 79.4407C70.2781 79.3024 70.0146 79.2396 69.6629 79.2396C69.3613 79.2396 69.1122 79.2899 68.9406 79.3904C68.7692 79.4909 68.66 79.6542 68.6186 79.8553C68.5564 80.1569 68.9068 80.4082 69.6569 80.6093C69.7173 80.6218 69.7749 80.647 69.7999 80.647C69.9204 80.6721 70.0735 80.7223 70.3018 80.7727C71.3004 81.0491 71.9298 81.2877 72.2124 81.5013C72.56 81.7655 72.787 82.0669 72.9054 82.4062C73.0241 82.7454 73.0292 83.1475 72.9335 83.6126C72.7288 84.6052 72.219 85.3717 71.4164 85.9119C70.6015 86.4523 69.5544 86.7161 68.2476 86.7161C67.0537 86.7161 66.1534 86.4523 65.561 85.9119C64.9686 85.3717 64.7345 84.6177 64.846 83.6502ZM162.403 83.6502H165.23C165.238 83.9768 165.327 84.2156 165.512 84.3539C165.685 84.492 165.971 84.5674 166.373 84.5674C166.712 84.5674 167.002 84.5047 167.213 84.3914C167.425 84.2784 167.559 84.1151 167.601 83.914C167.668 83.5874 167.32 83.3234 166.548 83.1098C166.392 83.072 166.272 83.047 166.189 83.022C165.559 82.846 165.062 82.6951 164.702 82.5569C164.328 82.4188 164.067 82.2805 163.917 82.1548C163.617 81.9036 163.425 81.6146 163.322 81.2627C163.219 80.911 163.211 80.5213 163.304 80.0689C163.488 79.1769 163.972 78.4731 164.757 77.958C165.529 77.4428 166.511 77.1915 167.692 77.1915C168.861 77.1915 169.716 77.4301 170.281 77.9202C170.846 78.4103 171.078 79.114 170.977 80.0313H168.225C168.242 79.7673 168.158 79.5664 167.995 79.4407C167.835 79.3024 167.571 79.2396 167.22 79.2396C166.918 79.2396 166.669 79.2899 166.498 79.3904C166.326 79.4909 166.217 79.6542 166.175 79.8553C166.113 80.1569 166.464 80.4082 167.214 80.6093C167.274 80.6218 167.332 80.647 167.357 80.647C167.477 80.6721 167.63 80.7223 167.859 80.7727C168.857 81.0491 169.487 81.2877 169.769 81.5013C170.117 81.7655 170.344 82.0669 170.462 82.4062C170.581 82.7454 170.586 83.1475 170.49 83.6126C170.286 84.6052 169.776 85.3717 168.973 85.9119C168.158 86.4523 167.111 86.7161 165.805 86.7161C164.611 86.7161 163.71 86.4523 163.118 85.9119C162.525 85.3717 162.291 84.6177 162.403 83.6502ZM149.021 86.4648L150.883 77.4301H158.108L157.663 79.5915H153.34L153.092 80.7978H156.748L156.321 82.8711H152.664L152.377 84.2659H156.875L156.422 86.4648H149.021ZM137.689 81.9537C137.513 82.8083 137.522 83.4366 137.728 83.8385C137.934 84.2407 138.345 84.4419 138.948 84.4419C139.564 84.4419 140.045 84.2407 140.405 83.8385C140.774 83.4491 141.042 82.8207 141.22 81.9537C141.399 81.0867 141.39 80.4585 141.182 80.0689C140.988 79.6669 140.59 79.4657 139.974 79.4657C139.371 79.4657 138.877 79.6669 138.505 80.0689C138.133 80.4712 137.866 81.0992 137.689 81.9537ZM134.762 81.9537C135.065 80.4835 135.733 79.3149 136.736 78.4732C137.753 77.6187 138.998 77.1915 140.443 77.1915C141.888 77.1915 142.943 77.6187 143.609 78.4732C144.277 79.3149 144.451 80.4835 144.148 81.9537C143.845 83.4241 143.192 84.58 142.174 85.4345C141.156 86.289 139.925 86.7161 138.48 86.7161C137.035 86.7161 135.966 86.289 135.301 85.4345C134.648 84.58 134.459 83.4241 134.762 81.9537ZM143.004 74.6407C142.767 75.1809 142.523 75.5705 142.258 75.8218C141.993 76.0731 141.69 76.1987 141.338 76.1987C141.25 76.1987 141.162 76.1987 141.09 76.1862C141.017 76.1737 140.957 76.161 140.886 76.1359L140.355 75.9726C140.272 75.9476 140.186 75.9349 140.126 75.9224C140.054 75.9097 140.006 75.8973 139.956 75.8973C139.817 75.8973 139.696 75.9349 139.593 76.0102C139.492 76.0731 139.403 76.1987 139.307 76.3622H138.578C138.797 75.8469 139.038 75.47 139.304 75.2187C139.566 74.9798 139.869 74.8543 140.208 74.8543C140.271 74.8543 140.344 74.8668 140.442 74.8795C140.527 74.8919 140.622 74.9171 140.74 74.955L141.285 75.1181C141.332 75.1306 141.38 75.1432 141.44 75.1558C141.5 75.1684 141.563 75.1684 141.626 75.1684C141.764 75.1684 141.888 75.1181 141.994 75.0303C142.1 74.9423 142.189 74.8167 142.275 74.6407H143.004ZM126.499 82.959H129.25C128.929 84.1527 128.313 85.0701 127.421 85.7361C126.533 86.3895 125.435 86.7161 124.141 86.7161C122.696 86.7161 121.641 86.2889 120.985 85.447C120.331 84.5925 120.158 83.4241 120.461 81.9537C120.764 80.4835 121.419 79.3149 122.409 78.4732C123.415 77.6187 124.621 77.1915 126.041 77.1915C127.348 77.1915 128.314 77.5056 128.938 78.1338C129.547 78.7747 129.788 79.6793 129.635 80.8481H126.858C126.916 80.383 126.835 80.0438 126.621 79.805C126.419 79.5664 126.078 79.4532 125.613 79.4532C125.047 79.4532 124.579 79.6542 124.204 80.0689C123.827 80.4962 123.562 81.1119 123.388 81.9537C123.218 82.7831 123.241 83.3988 123.455 83.8262C123.671 84.2407 124.079 84.4544 124.657 84.4544C125.11 84.4544 125.487 84.3288 125.806 84.0648C126.121 83.8135 126.363 83.4366 126.499 82.959ZM122.141 89.1666L122.317 88.3119C122.625 88.3999 122.911 88.4752 123.193 88.5129C123.471 88.5632 123.705 88.5884 123.919 88.5884C124.094 88.5884 124.24 88.5507 124.341 88.4879C124.445 88.4126 124.506 88.2995 124.537 88.1487C124.565 88.0103 124.521 87.9223 124.421 87.8596C124.32 87.7967 124.14 87.7591 123.888 87.7591C123.8 87.7591 123.737 87.7591 123.687 87.7591C123.637 87.7591 123.584 87.7717 123.547 87.7717L123.816 86.4648H124.519L124.413 86.98H124.526C124.979 86.98 125.31 87.0805 125.507 87.2817C125.704 87.4826 125.768 87.7842 125.69 88.1612C125.605 88.5758 125.402 88.89 125.094 89.1035C124.771 89.3299 124.371 89.4429 123.868 89.4429C123.617 89.4429 123.345 89.4177 123.064 89.3801C122.773 89.3299 122.459 89.2671 122.141 89.1666ZM107.044 77.4301H109.946L108.799 82.9967C108.693 83.5119 108.731 83.8763 108.898 84.1026C109.068 84.3161 109.396 84.4292 109.899 84.4292C110.389 84.4292 110.764 84.3161 111.021 84.1026C111.279 83.8889 111.455 83.5244 111.564 82.9967L112.711 77.4301H115.613L114.42 83.2228C114.186 84.3538 113.643 85.2209 112.79 85.8239C111.94 86.4145 110.822 86.7161 109.427 86.7161C108.032 86.7161 107.039 86.4145 106.422 85.8113C105.802 85.2209 105.617 84.3538 105.85 83.2228L107.044 77.4301ZM92.9224 86.4648L94.7845 77.4301H97.6872L96.3198 84.0648H100.265L99.7706 86.4648H92.9224ZM81.5909 81.9537C81.4148 82.8083 81.4236 83.4366 81.6297 83.8385C81.8358 84.2407 82.2468 84.4419 82.8497 84.4419C83.4656 84.4419 83.9469 84.2407 84.3062 83.8385C84.6755 83.4491 84.9431 82.8207 85.1218 81.9537C85.3004 81.0867 85.2918 80.4585 85.083 80.0689C84.8896 79.6669 84.4912 79.4657 83.8753 79.4657C83.2722 79.4657 82.7785 79.6669 82.4067 80.0689C82.0347 80.4712 81.7671 81.0992 81.5909 81.9537ZM78.6633 81.9537C78.9662 80.4835 79.6342 79.3149 80.637 78.4732C81.6549 77.6187 82.8992 77.1915 84.3441 77.1915C85.7893 77.1915 86.8445 77.6187 87.5104 78.4732C88.1788 79.3149 88.3527 80.4835 88.0496 81.9537C87.7467 83.4241 87.0935 84.58 86.0758 85.4345C85.0577 86.289 83.8263 86.7161 82.381 86.7161C80.9362 86.7161 79.8681 86.289 79.2023 85.4345C78.5491 84.58 78.3602 83.4241 78.6633 81.9537Z" fill="#F0401E"/>
</svg>
