<svg width="28" height="28" viewBox="0 0 28 28" fill="none" xmlns="http://www.w3.org/2000/svg">
<path d="M14.0012 0.71875C10.3943 0.71875 9.94152 0.734555 8.52494 0.798969C7.11102 0.863781 6.14587 1.08757 5.30145 1.41602C4.4278 1.75522 3.68684 2.20904 2.94867 2.94748C2.20984 3.68578 1.75602 4.42674 1.41575 5.29998C1.08638 6.14467 0.86232 7.11022 0.798703 8.52348C0.735351 9.94019 0.71875 10.3931 0.71875 14.0001C0.71875 17.6072 0.734688 18.0585 0.798969 19.4751C0.864047 20.889 1.08784 21.8541 1.41602 22.6986C1.75548 23.5722 2.2093 24.3132 2.94774 25.0513C3.68578 25.7902 4.42674 26.245 5.29972 26.5842C6.1448 26.9127 7.11009 27.1365 8.52374 27.2013C9.94045 27.2657 10.3928 27.2815 13.9996 27.2815C17.6069 27.2815 18.0582 27.2657 19.4748 27.2013C20.8887 27.1365 21.8549 26.9127 22.7 26.5842C23.5733 26.245 24.3132 25.7902 25.0511 25.0513C25.7899 24.3132 26.2436 23.5722 26.584 22.699C26.9104 21.8541 27.1346 20.8887 27.201 19.4753C27.2646 18.0588 27.2812 17.6072 27.2812 14.0001C27.2812 10.3931 27.2646 9.94045 27.201 8.52374C27.1346 7.10982 26.9104 6.1448 26.584 5.30038C26.2436 4.42674 25.7899 3.68578 25.0511 2.94748C24.3124 2.20877 23.5735 1.75495 22.6992 1.41615C21.8525 1.08757 20.8869 0.863648 19.4729 0.798969C18.0562 0.734555 17.6052 0.71875 13.9971 0.71875H14.0012ZM12.8097 3.11216C13.1634 3.11163 13.558 3.11216 14.0012 3.11216C17.5474 3.11216 17.9676 3.12491 19.368 3.18853C20.6629 3.24777 21.3658 3.46412 21.8339 3.64594C22.4538 3.88659 22.8956 4.1744 23.3602 4.63937C23.8251 5.10422 24.1127 5.54688 24.3541 6.16672C24.5359 6.63422 24.7525 7.33706 24.8115 8.63198C24.8751 10.0321 24.8889 10.4526 24.8889 13.9971C24.8889 17.5416 24.8751 17.9622 24.8115 19.3622C24.7522 20.6571 24.5359 21.3599 24.3541 21.8276C24.1134 22.4474 23.8251 22.8887 23.3602 23.3533C22.8954 23.8182 22.454 24.1058 21.8339 24.3466C21.3663 24.5292 20.6629 24.7451 19.368 24.8043C17.9679 24.8679 17.5474 24.8817 14.0012 24.8817C10.4548 24.8817 10.0345 24.8679 8.63451 24.8043C7.33959 24.7445 6.63674 24.5282 6.16818 24.3464C5.54848 24.1056 5.10568 23.8179 4.64084 23.3531C4.17599 22.8882 3.88832 22.4466 3.647 21.8265C3.46518 21.3589 3.24856 20.656 3.18959 19.3611C3.12598 17.961 3.11323 17.5405 3.11323 13.9938C3.11323 10.447 3.12598 10.0288 3.18959 8.62866C3.24883 7.33374 3.46518 6.6309 3.647 6.16273C3.88779 5.5429 4.17599 5.10023 4.64097 4.63539C5.10595 4.17055 5.54848 3.88274 6.16831 3.64155C6.63648 3.45894 7.33959 3.24312 8.63451 3.18362C9.8597 3.12823 10.3345 3.11163 12.8097 3.10884V3.11216ZM21.0907 5.31738C20.2108 5.31738 19.497 6.03059 19.497 6.9106C19.497 7.79048 20.2108 8.50435 21.0907 8.50435C21.9706 8.50435 22.6845 7.79048 22.6845 6.9106C22.6845 6.03072 21.9706 5.31685 21.0907 5.31685V5.31738ZM14.0012 7.17955C10.2346 7.17955 7.18074 10.2334 7.18074 14.0001C7.18074 17.7668 10.2346 20.8193 14.0012 20.8193C17.7679 20.8193 20.8207 17.7668 20.8207 14.0001C20.8207 10.2336 17.7676 7.17955 14.0009 7.17955H14.0012ZM14.0012 9.57296C16.4461 9.57296 18.4284 11.5549 18.4284 14.0001C18.4284 16.4451 16.4461 18.4273 14.0012 18.4273C11.5563 18.4273 9.57416 16.4451 9.57416 14.0001C9.57416 11.5549 11.5561 9.57296 14.0012 9.57296Z" fill="white"/>
</svg>

