<svg width="114" height="55" viewBox="0 0 114 55" fill="none" xmlns="http://www.w3.org/2000/svg">
<g clip-path="url(#clip0_3_2376)">
<mask id="mask0_3_2376" style="mask-type:luminance" maskUnits="userSpaceOnUse" x="0" y="0" width="114" height="55">
<path d="M113.94 0H0.0605469V55H113.94V0Z" fill="white"/>
</mask>
<g mask="url(#mask0_3_2376)">
<path d="M107.29 23.4336C107.716 25.2588 108.109 26.9373 108.498 28.617C109.198 31.6387 109.894 34.6615 110.596 37.6828C110.777 38.462 110.786 38.4607 110.029 38.4613C108.987 38.462 107.943 38.4118 106.906 38.4803C106.294 38.5208 106.15 38.2472 106.053 37.7473C105.789 36.3788 105.491 35.0167 105.203 33.6528C105.184 33.5669 105.134 33.4879 105.056 33.3069C103.707 35.2217 102.396 37.082 100.984 39.0858C101.388 39.0858 101.645 39.0852 101.901 39.0858C104.685 39.0924 107.469 39.1122 110.253 39.0948C110.783 39.0917 111.032 39.199 111.157 39.7769C111.673 42.1704 112.256 44.5497 112.835 47.0221C111.32 47.0221 109.855 47.021 108.39 47.0229C108.003 47.0234 108.065 46.6843 108.016 46.4824C107.752 45.3897 107.502 44.293 107.29 43.1894C107.21 42.7764 107.051 42.6401 106.623 42.6435C104.065 42.6638 101.507 42.6603 98.9497 42.646C98.593 42.644 98.3795 42.7552 98.1765 43.0518C97.3613 44.2431 96.5166 45.4145 95.6811 46.5918C95.5536 46.7715 95.4635 47.0147 95.1944 47.0158C93.7341 47.0216 92.2739 47.0186 90.6846 47.0186C96.237 39.1323 101.712 31.3559 107.29 23.4336Z" fill="white"/>
<path d="M67.4557 23.4748C67.9539 23.4748 68.4559 23.5138 68.949 23.4645C69.4954 23.4096 69.5962 23.5923 69.4723 24.0959C69.0534 25.7987 68.6683 27.5097 68.2669 29.2167C66.9188 34.9509 65.5605 40.6825 64.2357 46.4219C64.1247 46.9034 63.9535 47.048 63.4819 47.0343C62.4413 47.0039 61.3991 47.0123 60.3579 47.031C59.9342 47.0386 59.8197 46.9496 59.9279 46.4898C61.6894 39.0043 63.433 31.5144 65.1699 24.0232C65.2672 23.6035 65.4397 23.4238 65.8945 23.4643C66.4111 23.5101 66.9351 23.4748 67.4557 23.4748Z" fill="white"/>
<path d="M44.919 47.01C44.5402 45.4345 44.1848 43.9752 43.8389 42.5136C42.3995 36.4322 40.9631 30.3503 39.5264 24.2683C39.4902 24.115 39.4874 23.9491 39.4266 23.8073C39.2645 23.4279 39.4667 23.395 39.7678 23.3967C41.0355 23.4035 42.3033 23.4115 43.5707 23.3923C43.942 23.3865 44.0593 23.5262 44.1402 23.8778C44.7897 26.7039 45.468 29.5235 46.1321 32.3463C46.8377 35.3442 47.5307 38.345 48.2468 41.3404C48.3478 41.7632 48.3288 42.097 48.0621 42.4712C47.018 43.936 46.0106 45.4267 44.919 47.01Z" fill="white"/>
<path d="M79.9713 47.0078C79.5914 45.4249 79.2366 43.9652 78.891 42.5034C77.4583 36.4437 76.0284 30.3836 74.5979 24.3236C74.5565 24.1485 74.5423 23.9632 74.4761 23.7983C74.3548 23.495 74.4451 23.3942 74.7624 23.3962C76.0753 23.4047 77.3887 23.4193 78.701 23.3899C79.2026 23.3785 79.162 23.7443 79.2266 24.0173C80.2044 28.152 81.1708 32.2895 82.1399 36.426C82.5246 38.0676 82.8984 39.7118 83.3029 41.3486C83.4078 41.7734 83.3748 42.1075 83.1105 42.4786C82.0693 43.9409 81.0622 45.4273 79.9713 47.0078Z" fill="white"/>
<path d="M83.9924 41.4674C83.5794 39.8688 83.2111 38.4147 82.8238 36.9657C82.7353 36.6355 82.785 36.3867 82.9863 36.0995C85.8471 32.0213 88.6959 27.9347 91.5398 23.8447C91.7673 23.5174 92.0244 23.3807 92.4348 23.389C93.7599 23.416 95.0858 23.399 96.5629 23.399C92.3513 29.4525 88.2148 35.3984 83.9924 41.4674Z" fill="white"/>
<path d="M52.6362 29.4601C53.967 27.5302 55.3007 25.6023 56.625 23.668C56.7918 23.4243 57.0073 23.3957 57.2683 23.397C58.6264 23.4035 59.9845 23.4 61.5262 23.4C59.1123 26.8428 56.7657 30.1895 54.4191 33.5363C54.0449 33.564 53.991 33.2572 53.9131 33.0163C53.5257 31.8169 53.0769 30.64 52.6362 29.4601Z" fill="white"/>
<path d="M52.6364 29.46C53.2239 29.9007 53.2031 30.6361 53.4757 31.2274C53.7442 31.8097 53.9073 32.4408 54.1096 33.0527C54.1724 33.2432 54.1995 33.4491 54.4193 33.5361C52.622 36.1459 50.8245 38.7557 48.9389 41.4935C48.5161 39.8201 48.1382 38.3095 47.7485 36.8018C47.7007 36.6169 47.6778 36.47 47.7993 36.2988C49.4154 34.0219 51.0251 31.7404 52.6364 29.46Z" fill="white"/>
<path d="M55.695 13.4727C55.5543 13.4963 55.3939 13.4385 55.2549 13.302C54.7874 12.8429 54.3338 12.3734 53.933 11.8518C53.6138 11.4362 53.6393 11.1119 54.0412 10.7537C54.9218 9.96896 55.9061 9.33045 56.8736 8.66683C57.6918 8.10534 58.4932 7.51707 59.333 6.99012C60.1391 6.48423 60.5118 6.55663 61.1621 7.24298C61.6122 7.71821 62.0376 8.21727 62.4897 8.69047C62.8517 9.06892 62.7878 9.41117 62.4469 9.7464C62.3185 9.87273 62.1881 10.0087 62.033 10.094C60.2563 11.0724 58.6157 12.2845 56.7718 13.1456C56.4471 13.2971 56.1167 13.4507 55.695 13.4727Z" fill="#EC7923"/>
<path d="M54.1969 2.84905C55.0273 2.94103 55.7009 3.42402 56.4223 3.77753C57.7479 4.42675 57.7736 4.64691 56.6362 5.63672C55.4609 6.65958 54.3114 7.70831 53.1683 8.76682C51.7706 10.0608 51.31 9.85803 50.1318 9.11313C49.9231 8.98126 49.6935 8.88189 49.4724 8.76978C48.7466 8.40093 48.6596 8.11095 49.108 7.44917C49.2713 7.20814 49.4512 6.96489 49.6704 6.77724C50.8403 5.77617 51.8924 4.6615 52.9136 3.51341C53.2479 3.13755 53.6369 2.82411 54.1969 2.84905Z" fill="#F08721"/>
<path d="M47.2413 0.870135C47.9127 0.987419 48.8493 1.12373 49.7728 1.32173C50.434 1.46339 50.5561 1.75522 50.1983 2.34016C49.835 2.93415 49.4058 3.48825 48.9978 4.05435C48.3789 4.91321 47.7562 5.76947 47.1297 6.62279C46.7583 7.12886 46.2687 7.43399 45.6237 7.34311C44.8214 7.22971 44.0331 7.04261 43.2534 6.81635C42.8807 6.70812 42.7812 6.48999 42.9204 6.16215C43.0872 5.76947 43.2562 5.37256 43.4767 5.00925C44.1775 3.85506 44.9012 2.71473 45.6193 1.57088C45.932 1.07275 46.3756 0.810662 47.2413 0.870135Z" fill="#F3981F"/>
<path d="M31.9723 51.201C31.9723 51.7879 31.9542 52.3755 31.9769 52.9617C32.0056 53.7064 31.547 54.037 30.9232 54.1261C29.9177 54.2694 28.9019 54.3547 27.8873 54.4186C27.2019 54.462 26.9699 54.2084 27.0268 53.5293C27.1341 52.2477 27.2677 50.9681 27.3923 49.6879C27.447 49.1246 27.7458 48.7659 28.3112 48.6756C29.2238 48.5297 30.1312 48.3511 31.0605 48.3152C31.6002 48.2944 31.827 48.5324 31.9243 49.0391C32.0639 49.7647 31.8711 50.4812 31.9723 51.201Z" fill="#E75B25"/>
<path d="M22.1399 48.4626C22.8972 48.5196 23.5519 48.5492 24.2017 48.6231C24.9071 48.7032 25.1091 48.976 24.983 49.6657C24.7274 51.0618 24.2261 52.3869 23.7671 53.7234C23.6009 54.2075 23.2503 54.4751 22.737 54.4189C21.7075 54.3063 20.6824 54.1528 19.654 54.0266C19.2783 53.9805 19.2364 53.781 19.3086 53.457C19.664 51.8631 20.422 50.427 21.0762 48.9518C21.2923 48.465 21.7771 48.4432 22.1399 48.4626Z" fill="#E75125"/>
<path d="M34.0524 3.07411C34.0417 4.11452 33.8816 5.14072 33.743 6.16783C33.688 6.57583 33.5639 6.97958 33.116 7.13676C32.0743 7.50228 31.0174 7.81332 29.912 7.91804C29.6191 7.94593 29.379 7.88831 29.3505 7.51521C29.2423 6.09709 29.1642 4.68155 29.4006 3.2662C29.4645 2.88332 29.6702 2.66722 30.0165 2.53959C31.0982 2.14083 32.21 1.86193 33.3474 1.67723C33.872 1.59208 34.1202 1.77309 34.0574 2.3294C34.0297 2.57469 34.0528 2.82551 34.0524 3.07411Z" fill="#F5A51C"/>
<path d="M26.9482 8.29045C26.9401 8.81019 26.7488 9.09537 26.3908 9.26603C25.5767 9.65464 24.7649 10.0486 23.9424 10.4189C23.4035 10.6614 23.0138 10.5386 22.758 9.9472C22.3193 8.93339 21.8967 7.92142 21.6507 6.83705C21.5539 6.41113 21.6433 6.14849 21.9994 5.92722C22.9983 5.30663 24.0318 4.76232 25.1382 4.35099C25.6489 4.16112 25.9688 4.35506 26.0892 4.79575C26.4156 5.98891 26.6837 7.19795 26.9482 8.29045Z" fill="#F5A51C"/>
<path d="M15.5276 53.0227C14.6135 52.7419 13.6588 52.4039 12.775 51.9064C12.4683 51.7337 12.5067 51.3995 12.6834 51.1277C13.543 49.805 14.4933 48.5469 15.4569 47.2994C15.6392 47.0633 15.9079 46.9065 16.2258 46.9381C17.1378 47.0286 17.9653 47.3886 18.7639 47.8045C19.0848 47.9717 19.0539 48.301 18.8873 48.5768C18.1077 49.8678 17.3257 51.158 16.5224 52.4342C16.3172 52.76 16.0219 53.0205 15.5276 53.0227Z" fill="#E75425"/>
<path d="M18.2608 8.30996C18.4819 8.27838 18.5906 8.42614 18.6941 8.57686C19.3052 9.46711 19.9151 10.3581 20.525 11.2493C20.8687 11.7513 20.778 12.1827 20.2939 12.5294C19.5801 13.0407 18.8568 13.5386 18.1405 14.0464C17.7456 14.3262 17.3942 14.2833 17.0582 13.9415C16.3475 13.2178 15.6081 12.5193 15.0034 11.7009C14.5021 11.0225 14.5415 10.7478 15.2036 10.2388C15.846 9.74453 16.5011 9.26652 17.159 8.79314C17.4895 8.55525 17.8576 8.38698 18.2608 8.30996Z" fill="#F4A11D"/>
<path d="M9.7577 50.0894C9.54068 50.111 9.35395 50.0148 9.19252 49.8977C8.64618 49.5009 8.10649 49.0946 7.57493 48.6787C7.12278 48.325 7.11613 47.893 7.51324 47.5236C8.71766 46.4024 9.92726 45.2844 11.2316 44.2775C11.5722 44.0146 11.939 44.0333 12.2872 44.3089C12.6931 44.6302 13.1076 44.9411 13.5169 45.2584C14.1264 45.7309 14.1569 45.9185 13.6118 46.494C12.8366 47.3128 12.0301 48.1018 11.2425 48.9092C10.9595 49.1995 10.7021 49.515 10.4156 49.8018C10.2403 49.9775 10.0331 50.1225 9.7577 50.0894Z" fill="#E64725"/>
<path d="M33.192 49.1399C33.0795 48.5424 33.3889 48.2783 33.9108 48.1078C34.6622 47.8627 35.4274 47.6835 36.2022 47.5426C36.7103 47.4503 37.0646 47.5914 37.2059 48.1665C37.463 49.2127 37.7744 50.2455 38.0592 51.2848C38.1936 51.7752 38.051 52.1378 37.537 52.2835C36.5411 52.5657 35.5384 52.8245 34.505 52.9262C33.9963 52.9765 33.648 52.8363 33.5905 52.2198C33.4945 51.1897 33.3285 50.1661 33.192 49.1399Z" fill="#EA6624"/>
<path d="M12.6894 18.61C12.6037 18.5831 12.3806 18.5365 12.1781 18.4445C11.1699 17.9867 10.2316 17.4019 9.28649 16.8303C8.86501 16.5756 8.79537 16.2385 9.12525 15.8809C9.79718 15.1523 10.471 14.4225 11.1878 13.739C11.6311 13.3162 12.1203 13.215 12.6818 13.678C13.4461 14.308 14.2773 14.8577 15.0824 15.4382C15.5208 15.7544 15.5899 16.0905 15.1923 16.5008C14.6108 17.1005 14.0468 17.7166 13.4718 18.3225C13.2978 18.5059 13.1044 18.6619 12.6894 18.61Z" fill="#F3981F"/>
<path d="M10.1326 42.2994C10.1592 42.7399 10.0009 42.9372 9.79426 43.0794C8.45796 43.999 7.11704 44.9118 5.77243 45.8194C5.36388 46.0953 5.01535 46.0141 4.7383 45.6005C4.37481 45.0581 3.98897 44.53 3.63878 43.9792C3.40495 43.6117 3.40662 43.2826 3.84768 43.0164C5.23606 42.1788 6.60949 41.3166 7.99067 40.4672C8.42139 40.2023 8.82441 40.2467 9.11993 40.6644C9.51832 41.2276 10.0061 41.7451 10.1326 42.2994Z" fill="#E64725"/>
<path d="M1.51666 38.3255C1.48821 37.8163 1.76416 37.5483 2.18324 37.395C3.53192 36.9011 4.87837 36.4004 6.23702 35.9353C7.03973 35.6606 7.34116 35.8442 7.58829 36.6495C7.61451 36.7354 7.65145 36.8187 7.67103 36.9059C8.03138 38.5126 8.0118 38.5547 6.49782 39.2396C5.39295 39.7394 4.31781 40.3108 3.15587 40.6743C2.35778 40.9238 2.23015 40.8623 1.9773 40.077C1.79241 39.5031 1.66793 38.9101 1.51666 38.3255Z" fill="#E75125"/>
<path d="M9.01827 23.6879C7.68714 23.3702 6.35453 23.058 5.02562 22.7311C4.68503 22.6473 4.60265 22.3914 4.76778 22.1046C5.26074 21.2483 5.76017 20.395 6.28545 19.5583C6.56564 19.1119 7.03552 19.0523 7.48951 19.1991C8.64203 19.5722 9.77849 19.994 10.9275 20.3784C11.3226 20.5105 11.3981 20.722 11.2378 21.0891C10.866 21.9412 10.32 22.6812 9.76648 23.4165C9.58455 23.6581 9.30658 23.6738 9.01827 23.6879Z" fill="#ED7D23"/>
<path d="M4.80577 28.933C4.10687 28.933 3.40741 28.9461 2.70888 28.9286C2.21555 28.9162 2.00979 28.641 2.15903 28.1646C2.40006 27.395 2.65993 26.6313 2.91888 25.8673C3.05907 25.4542 3.36512 25.2735 3.79528 25.2617C5.24351 25.2218 6.6753 25.4128 8.11042 25.558C8.40889 25.5883 8.55443 25.7484 8.50087 26.0572C8.35034 26.926 8.04429 27.7456 7.65291 28.5287C7.48632 28.8622 7.11488 28.914 6.76876 28.9186C6.11455 28.9271 5.46016 28.921 4.80577 28.921V28.933Z" fill="#EB6924"/>
<path d="M51.6834 12.8374C51.8557 12.8038 51.997 12.8685 52.1041 12.9959C52.4804 13.4438 52.8585 13.8906 53.2216 14.3488C53.4502 14.6371 53.3788 14.9133 53.0816 15.0945C51.7384 15.9129 50.4627 16.8511 49.0047 17.4682C48.3043 17.7645 47.7927 17.4562 47.2794 16.5423C46.9307 15.9214 47.2999 15.5592 47.7382 15.2498C48.7494 14.5361 49.781 13.8512 50.8007 13.1494C51.0691 12.9647 51.3724 12.8939 51.6834 12.8374Z" fill="#F5A31D"/>
<path d="M45.3872 14.8351C44.8328 14.7025 44.2724 14.3233 43.7752 13.8637C43.5266 13.6342 43.7949 13.4016 43.9264 13.2136C44.4358 12.4861 45.1253 11.9279 45.7576 11.3162C45.9199 11.1592 46.0837 11.0035 46.2422 10.8428C47.2315 9.83859 48.6261 9.90951 49.562 11.0022C49.6939 11.156 49.6802 11.2881 49.586 11.4263C49.422 11.6669 49.2757 11.9331 49.0644 12.1259C48.1984 12.9164 47.314 13.6874 46.4286 14.4566C46.1713 14.6803 45.8824 14.8607 45.3872 14.8351Z" fill="#F6A91B"/>
<path d="M41.4476 13.0795C39.328 13.0145 39.1085 12.6213 40.1722 10.8803C40.5605 10.2451 40.9646 9.61956 41.3545 8.98511C41.5855 8.60907 41.8853 8.35917 42.3528 8.44598C43.017 8.56936 43.6791 8.70566 44.3388 8.85102C44.7219 8.93562 44.876 9.12161 44.6432 9.52388C43.9733 10.6821 43.1089 11.6993 42.3136 12.7661C42.0931 13.062 41.7453 13.1124 41.4476 13.0795Z" fill="#F7AF1A"/>
<path d="M35.9142 12.5121C34.5706 12.5162 34.5525 12.5117 34.8668 11.2233C35.0475 10.4821 35.3095 9.7612 35.5142 9.02536C35.6699 8.46609 36.0321 8.21582 36.5963 8.18996C37.1599 8.1641 37.7215 8.10001 38.285 8.08025C39.034 8.05421 39.2411 8.33735 38.9817 9.03219C38.7457 9.66386 38.4707 10.2808 38.2332 10.9119C37.6693 12.4096 37.5355 12.5071 35.9142 12.5121Z" fill="#F8B219"/>
<path d="M31.5939 44.7424C31.6062 46.6631 31.5811 46.6934 29.6929 47.0231C28.1644 47.2902 28.0029 47.1562 28.0792 45.6365C28.1029 45.1644 28.1695 44.6946 28.2094 44.223C28.2916 43.253 28.4045 43.0334 29.3817 42.8598C31.6539 42.4558 31.5004 42.4902 31.5933 44.4716C31.5976 44.5618 31.5939 44.6521 31.5939 44.7424Z" fill="#ED7D23"/>
<path d="M33.1276 9.96989C33.0766 10.4396 33.0286 10.9096 32.9741 11.379C32.915 11.885 32.9809 12.4607 32.4339 12.7542C31.6888 13.1537 30.8874 13.3691 30.0311 13.3111C29.8084 13.296 29.7293 13.122 29.7145 12.9334C29.639 11.9693 29.494 11.0094 29.6754 10.036C29.7478 9.64759 29.9319 9.43648 30.2843 9.31716C30.9697 9.08518 31.6823 8.98046 32.3895 8.84618C32.9364 8.74219 33.2011 8.89956 33.1036 9.49337C33.0783 9.64704 33.0999 9.80846 33.0999 9.9662C33.1091 9.96749 33.1184 9.9686 33.1276 9.96989Z" fill="#F8B917"/>
<path d="M24.4258 47.1983C23.8978 47.1102 23.3557 47.1185 22.823 46.9898C22.42 46.8925 22.2859 46.7043 22.3875 46.3275C22.6821 45.237 23.1871 44.2306 23.6601 43.2123C23.7602 42.9968 23.9674 42.9063 24.2179 42.8965C24.8987 42.8699 25.5691 42.9563 26.2405 43.0474C26.6046 43.0969 26.5829 43.3468 26.5351 43.6024C26.3523 44.5761 26.0837 45.5224 25.6927 46.4377C25.4441 47.0197 25.0542 47.2798 24.4258 47.1983Z" fill="#EC7623"/>
<path d="M19.5477 46.2824C18.8625 46.1086 18.1506 45.8973 17.4948 45.544C17.2403 45.4069 17.2968 45.1587 17.4371 44.954C18.0622 44.0433 18.6508 43.1063 19.3647 42.2591C19.8006 41.7418 20.3295 41.7831 20.9067 41.9809C22.3075 42.4612 22.3433 42.5602 21.5515 43.8156C21.1792 44.4062 20.8436 45.0198 20.4723 45.6112C20.2671 45.9378 20.024 46.2412 19.5477 46.2824Z" fill="#EB7324"/>
<path d="M27.9496 13.6315C27.9354 13.8391 27.8578 13.9937 27.713 14.12C27.679 14.1494 27.6426 14.1776 27.6033 14.1989C26.8161 14.627 25.8468 15.4146 25.1494 14.9971C24.314 14.4972 24.1778 13.2473 24.0033 12.2231C23.9588 11.9612 24.1427 11.8127 24.342 11.6884C25.112 11.2077 25.9522 10.8931 26.8224 10.6523C27.0364 10.5932 27.2051 10.5994 27.2717 10.8872C27.4849 11.805 27.7219 12.7172 27.9496 13.6315Z" fill="#F6B21A"/>
<path d="M16.7703 39.8779C17.3584 40.0251 17.8225 40.4568 18.2673 40.8958C18.4457 41.072 18.2446 41.2824 18.1345 41.437C17.4516 42.3956 16.5699 43.175 15.7611 44.0194C15.5018 44.2902 15.1675 44.3471 14.8381 44.1279C14.4083 43.8419 13.9808 43.5509 13.5702 43.2384C13.2857 43.0219 13.268 42.699 13.5081 42.4726C14.3895 41.6411 15.2999 40.84 16.2016 40.0301C16.3449 39.9016 16.532 39.8999 16.7703 39.8779Z" fill="#EA6D24"/>
<path d="M21.0562 17.8173C20.9747 17.7811 20.8844 17.7585 20.8154 17.7076C20.0211 17.1211 19.4233 16.3602 18.8941 15.5394C18.763 15.336 18.8893 15.1995 19.0238 15.0712C19.6312 14.4912 20.2899 13.9827 21.0449 13.6033C21.3421 13.4541 21.5948 13.4438 21.8286 13.719C22.3714 14.3578 22.8773 15.02 23.2273 15.7882C23.3341 16.022 23.4263 16.2488 23.1633 16.4533C22.5744 16.9109 21.9845 17.3662 21.3157 17.7059C21.2365 17.7463 21.1521 17.7765 21.0562 17.8173Z" fill="#F7AF1A"/>
<path d="M19.384 19.1863C19.1768 19.6006 18.8535 19.9746 18.5048 20.3243C17.6739 21.1576 17.4094 21.1925 16.4022 20.6218C15.9135 20.345 15.4447 20.0302 14.9438 19.7785C14.4217 19.516 14.4669 19.1645 14.7817 18.8236C15.2532 18.3127 15.7681 17.8406 16.2814 17.37C16.5309 17.141 16.8181 17.0761 17.1429 17.2784C17.8709 17.7315 18.5504 18.2466 19.1932 18.8114C19.2915 18.8978 19.4028 18.9876 19.384 19.1863Z" fill="#F6A41C"/>
<path d="M15.4772 38.5525C15.5528 38.8366 15.3917 38.9461 15.2502 39.0514C14.2745 39.7782 13.2893 40.4898 12.236 41.1054C11.863 41.3232 11.6318 41.2155 11.3671 40.9335C10.2349 39.7267 10.2709 39.3495 11.6543 38.4999C12.3255 38.0876 13.0204 37.7127 13.6809 37.2846C14.1753 36.9641 14.5456 37.0125 14.8862 37.4983C15.1322 37.849 15.4154 38.1735 15.4772 38.5525Z" fill="#EA6D24"/>
<path d="M13.2574 31.0013C13.2492 32.1614 13.1852 32.2554 12.0493 32.6064C11.1433 32.8864 10.2233 33.0931 9.27119 33.1614C8.88813 33.1889 8.74591 33.0413 8.68773 32.6995C8.58614 32.1044 8.73224 31.532 8.83198 30.957C8.88332 30.6611 9.16314 30.6233 9.40141 30.5558C10.3159 30.2971 11.2567 30.185 12.1946 30.0583C13.2177 29.9201 13.2646 29.9642 13.2574 31.0013Z" fill="#EF8522"/>
<path d="M14.6145 24.7539C13.6097 24.5166 12.6064 24.2728 11.5992 24.046C11.3383 23.9871 11.3386 23.8415 11.4077 23.6502C11.4687 23.4817 11.5387 23.3162 11.6107 23.152C12.3955 21.3615 12.8321 21.1615 14.6289 21.7786C14.9683 21.8951 15.3017 22.0296 15.6353 22.1624C16.4036 22.4685 16.4598 22.5806 16.0621 23.2806C15.8302 23.6889 15.52 24.0523 15.2635 24.4479C15.1039 24.6937 14.891 24.7513 14.6145 24.7539Z" fill="#F3991F"/>
<path d="M9.0194 35.7936C8.96769 35.3948 9.06188 35.0827 9.44181 34.9449C10.456 34.577 11.4735 34.2174 12.4938 33.8668C13.0569 33.6734 13.3888 33.814 13.5536 34.4617C13.8665 35.6915 13.8999 35.6948 12.7511 36.2753C11.907 36.7018 11.0378 37.0636 10.1413 37.3719C9.69356 37.5259 9.46397 37.4415 9.32545 37.0047C9.19653 36.5978 9.02716 36.2023 9.0194 35.7936Z" fill="#EC7623"/>
<path d="M11.3686 28.6474C10.8934 28.6474 10.4174 28.6331 9.94293 28.6516C9.51794 28.6681 9.33176 28.4671 9.43704 28.0787C9.60142 27.4725 9.79887 26.8731 10.022 26.286C10.1138 26.0444 10.357 25.9452 10.6324 25.9339C11.6765 25.8911 12.7092 26.0064 13.7433 26.1238C14.2178 26.1778 14.2878 26.448 14.1633 26.8327C14.0248 27.2612 13.8682 27.6838 13.7234 28.1103C13.5821 28.5264 13.2354 28.6204 12.8621 28.6344C12.3649 28.6533 11.8666 28.6391 11.3686 28.6391V28.6474Z" fill="#F18F21"/>
<path d="M35.6855 44.2921C35.8569 44.8737 35.5246 45.1338 35.0324 45.3399C33.2921 46.0687 33.1206 45.9801 32.9194 44.1643C32.9168 44.142 32.9141 44.1196 32.9115 44.0973C32.7432 42.6494 33.2947 42.031 34.7917 41.9457C35.1325 41.9263 35.305 42.0595 35.3615 42.362C35.4808 43.0005 35.7091 43.6204 35.6855 44.2921Z" fill="#ED7D23"/>
<path d="M41.0641 18.7506C40.5435 18.7238 40.1986 18.4691 39.8632 18.1994C39.6327 18.014 39.7659 17.823 39.8977 17.6745C40.5113 16.9832 41.1123 16.2776 41.7691 15.6288C42.1605 15.242 43.6976 15.8107 43.7831 16.3408C43.7977 16.4313 43.7319 16.5601 43.6636 16.6349C42.9922 17.3683 42.2301 18.0022 41.4441 18.6071C41.327 18.6972 41.1557 18.7175 41.0641 18.7506Z" fill="#F8B817"/>
<path d="M38.0242 17.5239C38.0482 17.5239 38.0027 17.5272 37.9579 17.5233C36.7889 17.4219 36.6391 17.1549 37.2015 16.1453C37.3877 15.8108 37.5983 15.4896 37.8055 15.1671C38.4045 14.2357 39.2598 14.0517 40.2383 14.6143C40.486 14.7567 40.4882 14.9364 40.3658 15.1137C39.8669 15.8365 39.3605 16.5548 38.8291 17.2537C38.6625 17.4727 38.3805 17.5475 38.0242 17.5239Z" fill="#F8B817"/>
<path d="M31.3107 39.5404C31.3292 40.975 30.4502 41.6575 29.1778 41.3769C28.8282 41.2999 28.7698 41.0476 28.7792 40.7674C28.789 40.4756 28.8583 40.1861 28.876 39.8941C28.9578 38.5525 29.0709 38.4636 30.4212 38.2728C31.0246 38.1875 31.2638 38.3951 31.2812 38.9632C31.2888 39.2111 31.3065 39.4588 31.3107 39.5404Z" fill="#F3991F"/>
<path d="M34.5375 17.0032C33.7864 17.0032 33.4888 16.6628 33.6447 15.9818C33.6899 15.7844 33.7405 15.5879 33.7954 15.3928C34.1653 14.0761 34.7311 13.7485 36.0958 14.0237C36.4429 14.0935 36.562 14.2647 36.4728 14.5879C36.2619 15.3515 35.9529 16.0762 35.56 16.7631C35.2841 17.2459 34.8024 16.8555 34.5375 17.0032Z" fill="#F9C014"/>
<path d="M26.1091 41.5121C24.6681 41.4896 24.5569 41.3184 25.0953 40.0218C25.1642 39.8556 25.2449 39.6941 25.3169 39.529C25.8141 38.3876 26.2332 38.2058 27.4181 38.552C27.7127 38.638 27.6853 38.8117 27.6633 39.0106C27.5782 39.7784 27.3338 40.5046 27.0173 41.2017C26.8294 41.6154 26.398 41.4628 26.1091 41.5121Z" fill="#F3991F"/>
<path d="M29.9582 16.248C29.9697 15.285 30.4599 14.6999 31.4285 14.493C32.3432 14.2975 32.4584 14.3986 32.377 15.3385C32.3574 15.5633 32.3145 15.7859 32.2915 16.0103C32.1721 17.1752 31.4322 17.7204 30.2478 17.5435C30.0053 17.5071 29.9504 17.407 29.9559 17.1962C29.9644 16.8804 29.9582 16.564 29.9582 16.248Z" fill="#F9C014"/>
<path d="M28.6169 17.5265C28.6291 18.1151 27.693 18.7982 26.8539 18.8128C26.564 18.8179 25.9437 17.5036 25.904 16.7999C25.8846 16.4569 27.1877 15.6819 27.8557 15.6392C28.2576 15.6136 28.5945 16.4488 28.6169 17.5265Z" fill="#F8B917"/>
<path d="M22.7772 40.8913C22.2737 40.8634 21.8213 40.651 21.3513 40.501C21.0724 40.4118 21.1814 40.2402 21.255 40.0777C21.594 39.3319 22.088 38.6865 22.6529 38.1084C23.0549 37.6967 23.989 37.7861 24.3984 38.1825C24.5638 38.3426 24.5392 38.4837 24.4528 38.6627C24.0998 39.3949 23.6318 40.0559 23.1883 40.7326C23.0854 40.8896 22.9425 40.912 22.7772 40.8913Z" fill="#F19120"/>
<path d="M20.6931 36.4048C21.1827 36.5208 21.5693 36.7795 21.788 37.1765C21.9575 37.484 21.6123 37.6968 21.4313 37.9053C21.0481 38.3471 20.6665 38.797 20.2345 39.1888C19.6621 39.7076 18.5136 39.3297 18.2957 38.5853C18.26 38.464 18.2792 38.3524 18.3692 38.2778C19.0592 37.7051 19.649 37.0167 20.4011 36.5167C20.4908 36.4569 20.6068 36.4367 20.6931 36.4048Z" fill="#F18F21"/>
<path d="M25.4061 19.3177C25.442 19.601 25.3016 19.6993 25.1969 19.8071C24.9113 20.1015 24.5715 20.3191 24.2095 20.5129C23.8297 20.716 23.5253 20.6833 23.2651 20.3272C23.1722 20.2 23.054 20.0914 22.9559 19.9674C22.6735 19.61 22.1711 19.3675 22.2537 18.8133C22.2939 18.5416 23.7965 17.6059 24.0957 17.6123C24.1576 17.6136 24.2242 17.6328 24.2791 17.6617C24.4472 17.7498 25.4002 19.2329 25.4061 19.3177Z" fill="#F8B218"/>
<path d="M22.6098 21.5173C22.6135 22.2906 21.2862 23.128 20.6119 22.7871C20.4719 22.7163 20.3324 22.6408 20.2052 22.5499C19.8306 22.2829 19.0955 22.0943 19.1806 21.7068C19.3197 21.0727 19.9368 20.6252 20.5273 20.2778C20.6909 20.1813 20.8723 20.2268 21.0352 20.3376C21.4988 20.6531 21.9659 20.9634 22.4332 21.2733C22.5283 21.3363 22.6264 21.3913 22.6098 21.5173Z" fill="#F7B01A"/>
<path d="M19.0101 25.6473C18.3639 25.4757 17.694 25.2969 17.0233 25.1204C16.791 25.0594 16.7463 24.9026 16.8303 24.709C17.0368 24.2334 17.2939 23.7874 17.67 23.4215C17.8872 23.21 18.1369 23.1932 18.418 23.2883C18.9267 23.4603 19.4357 23.635 19.9543 23.7723C20.3309 23.8718 20.4262 24.0729 20.2783 24.408C20.0289 24.9722 19.7247 25.4857 19.0101 25.6473Z" fill="#F1A71E"/>
<path d="M15.0445 33.6014C15.0262 33.2356 15.1696 33.018 15.4547 32.9184C16.2401 32.6441 17.0321 32.3889 17.8176 32.1152C18.1266 32.0075 18.2971 32.0731 18.3024 32.4223C18.3028 32.4445 18.3124 32.4663 18.3167 32.4884C18.5653 33.7616 18.7854 33.3879 17.6456 33.9695C17.2061 34.1938 16.7447 34.3801 16.2809 34.5504C15.4442 34.8574 15.4008 34.8253 15.1435 33.9359C15.106 33.8066 15.0672 33.6781 15.0445 33.6014Z" fill="#F3991F"/>
<path d="M17.2302 37.3987C16.6742 37.2844 16.5213 36.8023 16.2917 36.4121C16.1037 36.0925 16.3604 35.9124 16.5839 35.7573C17.2128 35.3203 17.8799 34.9514 18.563 34.6014C19.1841 34.2832 19.3411 34.7329 19.6006 35.0933C19.8658 35.4618 19.8211 35.7399 19.4434 35.9972C18.8854 36.377 18.3472 36.7857 17.7883 37.1638C17.6258 37.2737 17.4208 37.3208 17.2302 37.3987Z" fill="#F19120"/>
<path d="M16.7517 28.4632C16.6851 28.4597 16.4701 28.488 16.2826 28.4291C15.9653 28.3293 15.4167 28.65 15.3585 28.0865C15.2752 27.2782 15.9032 26.4836 16.5295 26.4733C17.1627 26.4629 17.7896 26.5254 18.4188 26.6041C18.8015 26.6521 18.8571 26.82 18.8071 27.1401C18.6455 28.1714 18.3522 28.3763 16.7517 28.4632Z" fill="#F5A21D"/>
<path d="M18.1166 30.1093C18.2394 30.8356 17.8711 31.1789 17.1508 31.2805C16.5306 31.368 15.9194 31.5202 15.3038 31.6414C15.0024 31.7007 14.881 31.5941 14.8328 31.2679C14.6836 30.2571 14.9326 29.8452 15.9342 29.6562C16.4624 29.5567 17.0027 29.5214 17.5363 29.4485C18.0394 29.3796 18.2634 29.5619 18.1166 30.1093Z" fill="#F3991F"/>
<path d="M32.3688 38.6653C32.359 38.2503 32.9172 37.8641 33.5121 37.8742C33.8275 37.8798 34.3105 38.7281 34.3135 39.2822C34.3151 39.5989 33.5957 40.0258 33.0285 40.0444C32.6715 40.0563 32.3874 39.4626 32.3688 38.6653Z" fill="#F49E1E"/>
<path d="M42.1972 0.57373H39.7516C37.6462 0.57373 37.5862 1.41892 37.5862 1.41892C37.5862 1.41892 37.5864 1.4191 37.5866 1.4191C37.0029 2.93216 36.516 4.47754 36.2222 6.07741C36.149 6.4747 36.3018 6.6605 36.7209 6.66974C37.6939 6.69098 38.665 6.67768 39.6273 6.52623C39.9973 6.46805 40.3107 6.27411 40.471 5.91598C41.1226 4.45962 41.8393 3.02857 42.2979 1.49483C42.3851 1.20319 42.5402 0.845054 42.1972 0.57373Z" fill="#F4A11D"/>
<path d="M6.46832 30.8122C5.26315 30.9827 4.06076 31.1842 2.85024 31.3019C1.98714 31.3857 1.37948 31.7054 1.16504 32.589V34.8952C1.43415 35.023 1.71988 35.079 2.01096 35.025C3.47212 34.7546 4.93199 34.4743 6.36008 34.0581C6.8741 33.9085 7.12788 33.5449 7.14376 33.0022C7.15743 32.5296 7.18957 32.0566 7.2363 31.5859C7.29392 31.0056 7.07819 30.726 6.46832 30.8122Z" fill="#E75B25"/>
</g>
</g>
<defs>
<clipPath id="clip0_3_2376">
<rect width="113.879" height="55" fill="white" transform="translate(0.0605469)"/>
</clipPath>
</defs>
</svg>

